<?xml version="1.0" encoding="UTF-8" standalone="no"?><svg xmlns="http://www.w3.org/2000/svg" xmlns:xlink="http://www.w3.org/1999/xlink" fill="#ffffff" height="12.9" preserveAspectRatio="xMidYMid meet" version="1" viewBox="1.4 5.5 21.4 12.9" width="21.4" zoomAndPan="magnify">
 <g id="change1_1"><path d="m22.287 6.707a0.878 0.878 0 0 0 -0.852 -0.015l-3.994 2.174v-1.4a1.926 1.926 0 0 0 -1.922 -1.926h-12.24a1.926 1.926 0 0 0 -1.922 1.922v9.076a1.938 1.938 0 0 0 1.922 1.922h12.24a1.938 1.938 0 0 0 1.922 -1.922v-1.428l3.991 2.2a0.775 0.775 0 0 0 0.853 -0.011 0.867 0.867 0 0 0 0.451 -0.773v-9.047a0.842 0.842 0 0 0 -0.449 -0.772zm-15.943 8.306-0.631 0.617a5.143 5.143 0 0 1 0 -7.26l0.629 0.64a4.29 4.29 0 0 0 0.002 6.003zm3-0.471a2.542 2.542 0 1 1 2.541 -2.542 2.528 2.528 0 0 1 -2.541 2.542zm3.631 1.088-0.618-0.617a4.25 4.25 0 0 0 0 -6l0.618-0.64a5.144 5.144 0 0 1 0 7.257z" fill="inherit"/></g>
</svg>