<?xml version="1.0" encoding="UTF-8"?><svg xmlns="http://www.w3.org/2000/svg" xmlns:xlink="http://www.w3.org/1999/xlink" data-name="Project Manager" height="805.7" preserveAspectRatio="xMidYMid meet" version="1.0" viewBox="-15.3 24.7 1022.0 805.7" width="1022.0" zoomAndPan="magnify"><defs><clipPath id="a"><path d="M685.8844,450.8569c-33.4918,59.5951-102.5666,87.8976-165.4967,87.2943L512.44,449.813c55.2583,1.0985,112.9249-30.043,148.6162-52.4629Z" fill="none"/></clipPath><clipPath id="b"><path d="M652.5429,559.0338s-119.9328,84.21-161.2359,36.88c0,0-7.9625,44.0764-32.0414,54.6513l-52.3927-11.8439-5.2188,26.9669c-81.5961-43.2128-172.8067-246.2395-69.886-344.3113L496.71,312.0088C525.0869,342.2888,563.5473,533.403,652.5429,559.0338Z" fill="none"/></clipPath><clipPath id="c"><path d="M594.1472,399.6067C542.0387,604.75,175.0312,585.4664,303.94,366.2792L365.8865,397.08c5.5746,131.4719,164.3946-4.6378,188.8374-41.3542Z" fill="none"/></clipPath><linearGradient gradientUnits="userSpaceOnUse" id="d" x1="332.562" x2="274.016" xlink:actuate="onLoad" xlink:show="other" xlink:type="simple" xmlns:xlink="http://www.w3.org/1999/xlink" y1="672.791" y2="534.959"><stop offset="0" stop-color="#fff"/><stop offset="1"/></linearGradient></defs><g><g><path d="M911.376,477.2263C877.0932,628.9987,716.51,730.6018,577.35,786.43c-82.3732,32.227-170.004,44.0019-254.2629,26.75C153.5612,777.276-15.2735,608.449,62.878,450.8615c66.3558-94.7952,197.2167-127.7076,303.2946-124.23C520.8617,125.2905,968.0356,171.2833,911.376,477.2263Z" fill="#f1e5b0"/></g><g fill="#dbcc91"><path d="M905.1736,356.7a72.5722,72.5722,0,0,0-29.2766-1.7868c-17.1525,2.6546-33.59,12.2391-50.2578,29.34C811.2179,399.032,795.89,420.128,777.3852,450.63c-16.0166,26.4051-40.6479,40.2777-70.6518,40.2777A109.5886,109.5886,0,0,1,684.91,488.623c-25.5245-5.156-51.8913-19.0286-72.3365-38.0826-20.6621-19.2582-32.582-41.4008-32.71-60.7739-.1532-25.1671-23.189-42.9322-61.6035-47.5266-47.2585-5.6536-106.1564,10.95-118.9058,47.6288-12.0986,34.8027-57.8513,66.07-108.7982,74.34-27.63,4.48-79.9045,5.6026-119.6334-37.24-15.404-16.6292-32.7224-27.6941-51.6743-33.067.2425-.1786.4722-.3445.7147-.51,18.9264,5.4494,36.2192,16.5526,51.5977,33.1435,39.4609,42.5748,91.3905,41.4518,118.8421,36.9977,50.6662-8.2188,96.1509-39.2821,108.1729-73.8551,12.8771-37.0233,72.2088-53.8056,119.7865-48.1137,38.861,4.6327,62.1522,22.6658,62.3181,48.203.1276,19.1945,11.971,41.1839,32.4927,60.3145,20.33,18.9519,46.5439,32.7479,71.9152,37.8783,39.4992,7.9764,72.0174-5.3856,91.5692-37.6359,32.4544-53.4993,61.7182-90.3057,99.0989-96.0869a72.7359,72.7359,0,0,1,29.149,1.6973Z" fill="inherit"/><path d="M911.376,477.2263l-.1531.6891c-12.5453-4.0967-24.2738-5.2708-35.3259-3.5606-17.1525,2.6418-33.59,12.2389-50.2578,29.3276-14.4213,14.7787-29.7488,35.8747-48.254,66.3893-16.0166,26.4051-40.6479,40.2649-70.6518,40.2649a110.5,110.5,0,0,1-21.8235-2.2717c-25.5245-5.156-51.8913-19.0413-72.3365-38.0953-20.6621-19.2455-32.582-41.4008-32.71-60.7611-.1532-25.18-23.189-42.945-61.6035-47.5394-47.2585-5.641-106.1564,10.9627-118.9058,47.6287-12.0986,34.8027-57.8513,66.07-108.7982,74.34A161.142,161.142,0,0,1,264.7,585.7437c-28.0769,0-64.36-7.619-93.777-39.3461-20.7514-22.3977-44.9741-34.7-71.9918-36.5893-21.4789-1.5059-41.5412,3.8925-57.2,10.35,0-.2552,0-.51.0127-.753,15.71-6.4449,35.76-11.7923,57.2515-10.2863,27.2474,1.9015,51.6616,14.3064,72.5661,36.8573,39.4609,42.5621,91.3905,41.4518,118.8421,36.985,50.6662-8.2189,96.1509-39.2821,108.1729-73.8551,12.8771-37.0233,72.2088-53.8056,119.7865-48.1137,38.861,4.6455,62.1522,22.6657,62.3181,48.203.1276,19.2072,11.971,41.1838,32.4927,60.3144,20.33,18.952,46.5439,32.7607,71.9152,37.8784,39.4992,7.9764,72.0174-5.3857,91.5692-37.6359,32.4544-53.4994,61.7182-90.3057,99.0989-96.0742C886.9236,471.9427,898.7542,473.1168,911.376,477.2263Z" fill="inherit"/><path d="M602.4487,677.7788c-13.8678-16.2063-21.6648-33.5906-21.7681-49.1412-.1659-25.55-23.4571-43.57-62.3181-48.2157-47.5777-5.6793-106.9094,11.09-119.7865,48.1137-12.022,34.5729-57.5067,65.6362-108.1729,73.8679-27.4516,4.454-79.3812,5.5643-118.8421-36.9979-20.9045-22.5508-45.3187-34.9429-72.5661-36.8573a113.1305,113.1305,0,0,0-27.7069,1.5825c.1149.217.23.4339.3446.6382a112.4159,112.4159,0,0,1,27.2985-1.5315c27.0177,1.8888,51.24,14.2044,71.9918,36.5893,29.417,31.727,65.7,39.3588,93.777,39.3461a162.7425,162.7425,0,0,0,25.8564-2.0931c50.9469-8.27,96.7-39.5374,108.7982-74.34,12.7494-36.6787,71.6473-53.2824,118.9058-47.6287,38.4145,4.5817,61.45,22.36,61.6035,47.5266.1041,15.8,8.0573,33.4421,22.1947,49.86C602.1883,678.2576,602.3174,678.0179,602.4487,677.7788Z" fill="inherit"/><path d="M831.3185,258.1622c-18.5819,16.9993-36.1045,42.1282-54.6608,72.7193-19.5518,32.25-52.07,45.625-91.5692,37.6486-25.3713-5.13-51.585-18.9391-71.9152-37.8911-20.5217-19.1306-32.3651-41.1072-32.4927-60.3016-.1531-24.5091-21.5942-42.0794-57.6286-47.5725l-1.4022.4849c36.3778,5.213,58.0609,22.6682,58.214,47.0876.1276,19.36,12.0475,41.5156,32.71,60.7611,20.4452,19.054,46.812,32.9394,72.3365,38.0953a110.5,110.5,0,0,0,21.8235,2.2717c30.0039,0,54.6352-13.86,70.6518-40.2649,18.5052-30.5146,33.8327-51.6106,48.254-66.3892q3.197-3.2736,6.3684-6.177C831.7779,258.4813,831.5482,258.3153,831.3185,258.1622Z" fill="inherit"/></g><g><path d="M956.1752,409.7882C1006.7287,511.825,926.4013,652.69,825.4314,690.9826,907.5605,598.6494,954.8318,535.1229,956.1752,409.7882Z" fill="#f1e5b0"/></g></g><g data-name="Project Manager"><g><g><g><path d="M302.9115,572.029s5.1416,85.4157,69.9723,126.6755l31.035-35.232s-66.3889-86.8353-68.47-103.3973S302.9115,572.029,302.9115,572.029Z" fill="#f4b03f"/></g><g><path d="M422.6011,261.682,400.4824,570.0089c-30.697,9.9235-111.9346,26.4642-145.48,3.6154-47.0361-28.209-75.5787-245.4207-31.553-282.5968C277.3393,248.867,358.0352,233.6471,422.6011,261.682Z" fill="#4949bf"/></g><g><path d="M361.9719,579.584c-32.8093,6.366-78.9682,10.8147-106.97-5.9575-55.3542-54.0956-98.3468-300.15,24.4383-313.03C225.6843,320.84,248.8525,568.154,339.9716,567.8524A45.5448,45.5448,0,0,1,361.9719,579.584Z" fill="#1d1d91"/></g></g><g><g><path d="M760.627,653.845c-20.8306,42.5583-44.39,69.3178-96.946,92.7133-80.5939,43.54-177.9516,77.5442-268.8712,74.485-29.0587-43.3248-42.3962-96.8261-46.7619-148.093,25.5369-54.3644,175.3619-91.9876,222.4726-112.1038Z" fill="#4949bf"/></g><g><path d="M493.6023,811.51a441.5248,441.5248,0,0,1-98.7925,9.5334c-25.8149-38.0106-38.336-83.8206-44.8343-128.771-3.9643-22.3716-3.331-30.5276,21.8239-47.0291C383.8887,713.8476,411.8953,783.9517,493.6023,811.51Z" fill="#1d1d91"/></g></g></g><g><path d="M843.6327,608.7049c-46.6171,55.8361-112.7654,102.7179-179.948,137.8576-30.106,2.4761-60.71,4.8754-81.5633,6.1516-55.6307,3.4458-135.3182-83.0185-135.3182-83.0185-49.9021-29.6292-90.7977-83.7254-31.1526-114.5668,19.6642-10.2458,38.1941-18.3991,54.43-18.9156C530.229,551.514,801.97,555.7486,843.6327,608.7049Z" fill="#5b003f"/></g><g><path d="M775.814,674.2518c-58.4638,46.5268-127.407,83.6123-198.4658,112.18-94.3957-4.18-139.3575-52.3624-176.3452-119.6539-23.8191-33.9632-72.2333-80.8594-29.6-114.65,19.6566-15.3814,76.0055-20.9446,85.7636-13.947C536.2616,575.4157,704.71,621.9016,775.814,674.2518Z" fill="#75004c"/></g><g><g><path d="M735.78,411.9729c-.6345,21.7624-35.6639,34.1768-49.9,38.8865l-23.993-38.542-.83-14.97c6.1365-6.2877,34.9378-31.4691,42.7407-28.51,10.9884,2.2582,3.6246,12.6339,3.6246,12.6339S735.4611,387.6353,735.78,411.9729Z" fill="#f4b03f"/></g><g><path d="M690.5891,449.328c-2.91,1.0082-4.7093,1.5314-4.7093,1.5314l-23.993-38.542-.83-14.97s4.888-4.7475,11.4988-10.3629Z" fill="#75004c" opacity=".2"/></g><g clip-path="url(#a)"><g><g><path d="M685.8844,450.8569c-33.4918,59.5951-102.5666,87.8976-165.4967,87.2943L512.44,449.813c55.2583,1.0985,112.9249-30.043,148.6162-52.4629Z" fill="#297a40"/></g><g><path d="M445.9971,251.8673c1.9164,8.1146-10.8716,10.9382-12.5492,2.77C431.5315,246.5235,444.32,243.7,445.9971,251.8673Z" fill="#f4b03f"/></g><g><path d="M503.4831,239.1745c1.9164,8.1146-10.8715,10.9383-12.5492,2.77C489.0176,233.8307,501.8056,231.007,503.4831,239.1745Z" fill="#f4b03f"/></g><g><path d="M560.9691,226.4818c1.9165,8.1146-10.8715,10.9383-12.5491,2.77C546.5036,221.138,559.2916,218.3143,560.9691,226.4818Z" fill="#f4b03f"/></g><g><path d="M455.7942,296.2389c1.9164,8.1146-10.8716,10.9383-12.5492,2.77C441.3287,290.8951,454.1166,288.0714,455.7942,296.2389Z" fill="#f4b03f"/></g><g><path d="M513.28,283.5462c1.9164,8.1146-10.8715,10.9383-12.5491,2.77C498.8147,278.2024,511.6027,275.3787,513.28,283.5462Z" fill="#f4b03f"/></g><g><path d="M570.7663,270.8534c1.9164,8.1146-10.8716,10.9383-12.5492,2.77C556.3008,265.51,569.0887,262.686,570.7663,270.8534Z" fill="#f4b03f"/></g><g><path d="M465.5913,340.6106c1.9164,8.1146-10.8715,10.9383-12.5492,2.77C451.1258,335.2668,463.9138,332.4431,465.5913,340.6106Z" fill="#f4b03f"/></g><g><path d="M523.0774,327.9179c1.9164,8.1146-10.8716,10.9382-12.5492,2.77C508.6118,322.5741,521.4,319.75,523.0774,327.9179Z" fill="#f4b03f"/></g><g><path d="M580.5634,315.2251c1.9164,8.1146-10.8715,10.9383-12.5492,2.77C566.0979,309.8813,578.8858,307.0576,580.5634,315.2251Z" fill="#f4b03f"/></g><g><path d="M475.3884,384.9823c1.9165,8.1146-10.8715,10.9382-12.5491,2.77C460.9229,379.6385,473.7109,376.8148,475.3884,384.9823Z" fill="#f4b03f"/></g><g><path d="M532.8745,372.29c1.9164,8.1146-10.8716,10.9383-12.5492,2.77C518.409,366.9457,531.1969,364.122,532.8745,372.29Z" fill="#f4b03f"/></g><g><path d="M590.3605,359.5968c1.9164,8.1146-10.8715,10.9383-12.5492,2.77C575.895,354.253,588.683,351.4293,590.3605,359.5968Z" fill="#f4b03f"/></g><g><path d="M610.6444,215.5136c1.9164,8.1146-10.8715,10.9383-12.5492,2.77C596.1789,210.17,608.9669,207.3462,610.6444,215.5136Z" fill="#f4b03f"/></g><g><path d="M668.1305,202.8209c1.9164,8.1146-10.8716,10.9383-12.5492,2.77C653.665,197.4771,666.4529,194.6534,668.1305,202.8209Z" fill="#f4b03f"/></g><g><path d="M725.6165,190.1282c1.9164,8.1146-10.8715,10.9382-12.5492,2.77C711.151,184.7844,723.939,181.9607,725.6165,190.1282Z" fill="#f4b03f"/></g><g><path d="M620.4415,259.8853c1.9165,8.1146-10.8715,10.9383-12.5491,2.77C605.976,254.5415,618.764,251.7178,620.4415,259.8853Z" fill="#f4b03f"/></g><g><path d="M677.9276,247.1926c1.9164,8.1146-10.8716,10.9382-12.5492,2.77C663.4621,241.8488,676.25,239.0251,677.9276,247.1926Z" fill="#f4b03f"/></g><g><path d="M735.4136,234.5c1.9164,8.1146-10.8715,10.9383-12.5491,2.77C720.9481,229.156,733.7361,226.3323,735.4136,234.5Z" fill="#f4b03f"/></g><g><path d="M630.2387,304.257c1.9164,8.1146-10.8716,10.9382-12.5492,2.77C615.7732,298.9132,628.5611,296.09,630.2387,304.257Z" fill="#f4b03f"/></g><g><path d="M687.7247,291.5642c1.9164,8.1146-10.8715,10.9383-12.5492,2.77C673.2592,286.22,686.0472,283.3967,687.7247,291.5642Z" fill="#f4b03f"/></g><g><path d="M745.2108,278.8715c1.9164,8.1146-10.8716,10.9383-12.5492,2.77C730.7452,273.5277,743.5332,270.704,745.2108,278.8715Z" fill="#f4b03f"/></g><g><path d="M640.0358,348.6286c1.9164,8.1146-10.8715,10.9383-12.5492,2.77C625.57,343.2848,638.3583,340.4612,640.0358,348.6286Z" fill="#f4b03f"/></g><g><path d="M697.5218,335.9359c1.9165,8.1146-10.8715,10.9383-12.5491,2.77C683.0563,330.5921,695.8443,327.7684,697.5218,335.9359Z" fill="#f4b03f"/></g><g><path d="M755.0079,323.2432c1.9164,8.1145-10.8716,10.9382-12.5492,2.77C740.5424,317.8993,753.33,315.0757,755.0079,323.2432Z" fill="#f4b03f"/></g><g><path d="M485.6931,431.6526c1.9164,8.1146-10.8715,10.9382-12.5492,2.77C471.2276,426.3088,484.0155,423.4851,485.6931,431.6526Z" fill="#f4b03f"/></g><g><path d="M543.1791,418.96c1.9165,8.1146-10.8715,10.9383-12.5491,2.77C528.7136,413.616,541.5016,410.7923,543.1791,418.96Z" fill="#f4b03f"/></g><g><path d="M600.6652,406.2671c1.9164,8.1146-10.8716,10.9383-12.5492,2.77C586.2,400.9233,598.9876,398.1,600.6652,406.2671Z" fill="#f4b03f"/></g><g><path d="M495.49,476.0242c1.9164,8.1146-10.8715,10.9383-12.5492,2.77C481.0247,470.68,493.8127,467.8567,495.49,476.0242Z" fill="#f4b03f"/></g><g><path d="M552.9763,463.3315c1.9164,8.1146-10.8716,10.9383-12.5492,2.77C538.5108,457.9877,551.2987,455.164,552.9763,463.3315Z" fill="#f4b03f"/></g><g><path d="M610.4623,450.6387c1.9164,8.1146-10.8715,10.9383-12.5492,2.77C595.9968,445.2949,608.7848,442.4713,610.4623,450.6387Z" fill="#f4b03f"/></g><g><path d="M505.2873,520.3959c1.9165,8.1146-10.8715,10.9383-12.5491,2.77C490.8218,515.0521,503.61,512.2284,505.2873,520.3959Z" fill="#f4b03f"/></g><g><path d="M562.7734,507.7032c1.9164,8.1146-10.8715,10.9382-12.5492,2.77C548.3079,502.3594,561.0958,499.5357,562.7734,507.7032Z" fill="#f4b03f"/></g><g><path d="M620.2594,495.01c1.9165,8.1146-10.8715,10.9383-12.5491,2.77C605.7939,489.6666,618.5819,486.8429,620.2594,495.01Z" fill="#f4b03f"/></g><g><path d="M515.0845,564.7676c1.9164,8.1146-10.8716,10.9382-12.5492,2.77C500.619,559.4238,513.4069,556.6,515.0845,564.7676Z" fill="#f4b03f"/></g><g><path d="M572.5705,552.0748c1.9164,8.1146-10.8715,10.9383-12.5492,2.77C558.105,546.731,570.893,543.9073,572.5705,552.0748Z" fill="#f4b03f"/></g><g><path d="M630.0566,539.3821c1.9164,8.1146-10.8716,10.9383-12.5492,2.77C615.591,534.0383,628.379,531.2146,630.0566,539.3821Z" fill="#f4b03f"/></g><g><path d="M650.3405,395.2989c1.9164,8.1146-10.8716,10.9383-12.5492,2.77C635.8749,389.9551,648.6629,387.1315,650.3405,395.2989Z" fill="#f4b03f"/></g><g><path d="M707.8265,382.6062c1.9164,8.1146-10.8715,10.9383-12.5492,2.77C693.361,377.2624,706.149,374.4387,707.8265,382.6062Z" fill="#f4b03f"/></g><g><path d="M765.3125,369.9135c1.9165,8.1146-10.8715,10.9382-12.5491,2.77C750.847,364.57,763.635,361.746,765.3125,369.9135Z" fill="#f4b03f"/></g><g><path d="M660.1376,439.6706c1.9164,8.1146-10.8716,10.9383-12.5492,2.77C645.6721,434.3268,658.46,431.5031,660.1376,439.6706Z" fill="#f4b03f"/></g><g><path d="M717.6236,426.9779c1.9164,8.1146-10.8715,10.9382-12.5491,2.77C703.1581,421.6341,715.9461,418.81,717.6236,426.9779Z" fill="#f4b03f"/></g><g><path d="M775.11,414.2851c1.9164,8.1146-10.8716,10.9383-12.5492,2.77C760.6442,408.9413,773.4321,406.1176,775.11,414.2851Z" fill="#f4b03f"/></g><g><path d="M669.9347,484.0423c1.9164,8.1146-10.8715,10.9382-12.5492,2.77C655.4692,478.6985,668.2572,475.8748,669.9347,484.0423Z" fill="#f4b03f"/></g><g><path d="M727.4207,471.35c1.9165,8.1146-10.8715,10.9383-12.5491,2.77C712.9552,466.0057,725.7432,463.182,727.4207,471.35Z" fill="#f4b03f"/></g><g><path d="M784.9068,458.6568c1.9164,8.1146-10.8715,10.9383-12.5492,2.77C770.4413,453.313,783.2292,450.4893,784.9068,458.6568Z" fill="#f4b03f"/></g><g><path d="M679.7318,528.4139c1.9165,8.1146-10.8715,10.9383-12.5491,2.77C665.2663,523.07,678.0543,520.2465,679.7318,528.4139Z" fill="#f4b03f"/></g><g><path d="M737.2179,515.7212c1.9164,8.1146-10.8716,10.9383-12.5492,2.77C722.7524,510.3774,735.54,507.5537,737.2179,515.7212Z" fill="#f4b03f"/></g><g><path d="M794.7039,503.0285c1.9164,8.1145-10.8715,10.9382-12.5492,2.77C780.2384,497.6846,793.0264,494.861,794.7039,503.0285Z" fill="#f4b03f"/></g><g><path d="M525.3891,611.4379c1.9165,8.1146-10.8715,10.9382-12.5491,2.77C510.9236,606.0941,523.7116,603.27,525.3891,611.4379Z" fill="#f4b03f"/></g><g><path d="M582.8752,598.7451c1.9164,8.1146-10.8716,10.9383-12.5492,2.77C568.41,593.4013,581.1976,590.5776,582.8752,598.7451Z" fill="#f4b03f"/></g><g><path d="M640.3612,586.0524c1.9164,8.1146-10.8715,10.9383-12.5492,2.77C625.8957,580.7086,638.6837,577.8849,640.3612,586.0524Z" fill="#f4b03f"/></g><g><path d="M535.1863,655.81c1.9164,8.1146-10.8716,10.9383-12.5492,2.77C520.7208,650.4657,533.5087,647.642,535.1863,655.81Z" fill="#f4b03f"/></g><g><path d="M592.6723,643.1168c1.9164,8.1146-10.8715,10.9383-12.5492,2.77C578.2068,637.773,590.9948,634.9493,592.6723,643.1168Z" fill="#f4b03f"/></g><g><path d="M650.1583,630.424c1.9165,8.1146-10.8715,10.9383-12.5491,2.77C635.6928,625.08,648.4808,622.2566,650.1583,630.424Z" fill="#f4b03f"/></g><g><path d="M544.9834,700.1812c1.9164,8.1146-10.8716,10.9383-12.5492,2.77C530.5179,694.8374,543.3058,692.0137,544.9834,700.1812Z" fill="#f4b03f"/></g><g><path d="M602.4694,687.4885c1.9164,8.1146-10.8715,10.9382-12.5491,2.77C588.0039,682.1447,600.7919,679.321,602.4694,687.4885Z" fill="#f4b03f"/></g><g><path d="M659.9555,674.7957c1.9164,8.1146-10.8716,10.9383-12.5492,2.77C645.49,669.4519,658.2779,666.6282,659.9555,674.7957Z" fill="#f4b03f"/></g><g><path d="M554.7805,744.5529c1.9164,8.1146-10.8715,10.9382-12.5492,2.77C540.315,739.2091,553.103,736.3854,554.7805,744.5529Z" fill="#f4b03f"/></g><g><path d="M612.2666,731.86c1.9164,8.1146-10.8716,10.9383-12.5492,2.77C597.801,726.5163,610.589,723.6926,612.2666,731.86Z" fill="#f4b03f"/></g><g><path d="M669.7526,719.1674c1.9164,8.1146-10.8715,10.9383-12.5492,2.77C655.2871,713.8236,668.075,711,669.7526,719.1674Z" fill="#f4b03f"/></g><g><path d="M690.0365,575.0842c1.9164,8.1146-10.8715,10.9383-12.5492,2.77C675.571,569.74,688.3589,566.9168,690.0365,575.0842Z" fill="#f4b03f"/></g><g><path d="M747.5225,562.3915c1.9165,8.1146-10.8715,10.9383-12.5491,2.77C733.057,557.0477,745.845,554.224,747.5225,562.3915Z" fill="#f4b03f"/></g><g><path d="M805.0086,549.6988c1.9164,8.1146-10.8716,10.9382-12.5492,2.77C790.5431,544.355,803.331,541.5313,805.0086,549.6988Z" fill="#f4b03f"/></g><g><path d="M699.8336,619.4559c1.9164,8.1146-10.8715,10.9383-12.5492,2.77C685.3681,614.1121,698.1561,611.2884,699.8336,619.4559Z" fill="#f4b03f"/></g><g><path d="M757.32,606.7632c1.9164,8.1146-10.8716,10.9382-12.5492,2.77C742.8542,601.4194,755.6421,598.5957,757.32,606.7632Z" fill="#f4b03f"/></g><g><path d="M814.8057,594.07c1.9164,8.1146-10.8715,10.9383-12.5492,2.77C800.34,588.7266,813.1282,585.9029,814.8057,594.07Z" fill="#f4b03f"/></g><g><path d="M709.6307,663.8276c1.9165,8.1146-10.8715,10.9382-12.5491,2.77C695.1652,658.4838,707.9532,655.66,709.6307,663.8276Z" fill="#f4b03f"/></g><g><path d="M767.1168,651.1348c1.9164,8.1146-10.8716,10.9383-12.5492,2.77C752.6513,645.791,765.4392,642.9673,767.1168,651.1348Z" fill="#f4b03f"/></g><g><path d="M824.6028,638.4421c1.9165,8.1146-10.8715,10.9383-12.5491,2.77C810.1373,633.0983,822.9253,630.2746,824.6028,638.4421Z" fill="#f4b03f"/></g><g><path d="M719.4279,708.1992c1.9164,8.1146-10.8716,10.9383-12.5492,2.77C704.9624,702.8554,717.75,700.0318,719.4279,708.1992Z" fill="#f4b03f"/></g><g><path d="M776.9139,695.5065c1.9164,8.1146-10.8715,10.9383-12.5492,2.77C762.4484,690.1627,775.2364,687.339,776.9139,695.5065Z" fill="#f4b03f"/></g><g><path d="M834.4,682.8137c1.9164,8.1146-10.8716,10.9383-12.5492,2.77C819.9344,677.47,832.7224,674.6463,834.4,682.8137Z" fill="#f4b03f"/></g></g></g><g><path d="M685.8844,450.8569a169.9262,169.9262,0,0,1-15.7068,22.5476L639.39,410.3994c9.9242-5.4739,23.0136-13.8122,21.6659-13.0493Z" fill="#f2f2f2"/></g><g><g><path d="M740.2326,397.1541l-4.2353-7.8671c15.8756-7.2706,2.06-48.9261-10.2267-25.6592l-8.7866-1.6129C735.1351,320.8378,771.47,377.78,740.2326,397.1541Z" fill="#ccc"/></g><g><path d="M745.968,395.7144c1.2344,13.2791-27.4114,27.7328-43.522,27.3048-12.4412-.4283-26.33-34.97-32.1436-51.2919-5.3092-13.2679,28.7616-21.9932,35.22-27.7074C721.5635,335.5947,744.361,389.54,745.968,395.7144Z" fill="#f2f2f2"/></g><g><path d="M719.6083,348.6131c1.3626,9.0909-41.05,37.7392-49.09,23.7857a10.1776,10.1776,0,0,1,4.8228-12.4629C684.665,357.5647,712.0893,332.4028,719.6083,348.6131Z" fill="#ccc"/></g></g><g><path d="M673.4878,386.1951c23.8637-24.6084,57.1524,3.5408,4.6649,14.564Z" fill="#f4b03f"/></g></g><g clip-path="url(#b)"><g><g><path d="M729.9939,549.8308S532.61,643.2443,491.307,595.9143c0,0-7.9625,44.0764-32.0414,54.6513l-52.3927-11.8439-5.2188,26.9669c-81.5961-43.2128-172.8067-246.2395-69.886-344.3113L496.71,312.0088C541.4081,407.9294,622.2676,513.0122,729.9939,549.8308Z" fill="#4aa566"/></g><g><path d="M249.147,290.818c2.2112,8.0393-10.4653,11.3275-12.44,3.2261C234.4962,286.0053,247.1727,282.7171,249.147,290.818Z" fill="#f4b03f"/></g><g><path d="M306.1319,276.0369c2.2111,8.0393-10.4654,11.3276-12.44,3.2261C291.4811,271.2243,304.1575,267.9361,306.1319,276.0369Z" fill="#f4b03f"/></g><g><path d="M363.1167,261.2559c2.2111,8.0393-10.4653,11.3275-12.44,3.2261C348.4659,256.4433,361.1424,253.155,363.1167,261.2559Z" fill="#f4b03f"/></g><g><path d="M260.5561,334.8028c2.2111,8.0393-10.4654,11.3275-12.44,3.2261C245.9053,329.99,258.5817,326.7019,260.5561,334.8028Z" fill="#f4b03f"/></g><g><path d="M317.5409,320.0217c2.2111,8.0393-10.4654,11.3276-12.44,3.2261C302.89,315.2091,315.5666,311.9209,317.5409,320.0217Z" fill="#f4b03f"/></g><g><path d="M374.5257,305.2407c2.2111,8.0393-10.4653,11.3275-12.44,3.2261C359.8749,300.4281,372.5514,297.14,374.5257,305.2407Z" fill="#f4b03f"/></g><g><path d="M271.9651,378.7876c2.2111,8.0393-10.4654,11.3275-12.44,3.2261C257.3143,373.9749,269.9907,370.6867,271.9651,378.7876Z" fill="#f4b03f"/></g><g><path d="M328.95,364.0065c2.2111,8.0393-10.4653,11.3276-12.44,3.2261C314.2991,359.1939,326.9756,355.9057,328.95,364.0065Z" fill="#f4b03f"/></g><g><path d="M385.9347,349.2255c2.2112,8.0393-10.4653,11.3275-12.44,3.2261C371.284,344.4129,383.96,341.1246,385.9347,349.2255Z" fill="#f4b03f"/></g><g><path d="M283.3741,422.7724c2.2111,8.0393-10.4653,11.3275-12.44,3.2261C268.7233,417.96,281.4,414.6715,283.3741,422.7724Z" fill="#f4b03f"/></g><g><path d="M340.3589,407.9913c2.2112,8.0393-10.4653,11.3276-12.44,3.2261C325.7081,403.1787,338.3846,399.8905,340.3589,407.9913Z" fill="#f4b03f"/></g><g><path d="M397.3438,393.21c2.2111,8.0393-10.4654,11.3275-12.44,3.2261C382.693,388.3977,395.3694,385.1094,397.3438,393.21Z" fill="#f4b03f"/></g><g><path d="M412.3589,248.4832c2.2111,8.0393-10.4654,11.3275-12.44,3.2261C397.7081,243.6706,410.3845,240.3823,412.3589,248.4832Z" fill="#f4b03f"/></g><g><path d="M469.3437,233.7021c2.2111,8.0393-10.4653,11.3276-12.44,3.2261C454.6929,228.89,467.3694,225.6013,469.3437,233.7021Z" fill="#f4b03f"/></g><g><path d="M526.3285,218.9211c2.2112,8.0393-10.4653,11.3275-12.44,3.2261C511.6777,214.1085,524.3542,210.82,526.3285,218.9211Z" fill="#f4b03f"/></g><g><path d="M423.7679,292.468c2.2111,8.0393-10.4653,11.3275-12.44,3.2261C409.1171,287.6554,421.7936,284.3671,423.7679,292.468Z" fill="#f4b03f"/></g><g><path d="M480.7527,277.6869c2.2111,8.0393-10.4653,11.3276-12.44,3.2261C466.1019,272.8743,478.7784,269.5861,480.7527,277.6869Z" fill="#f4b03f"/></g><g><path d="M537.7376,262.9059c2.2111,8.0393-10.4654,11.3275-12.44,3.2261C523.0868,258.0933,535.7632,254.805,537.7376,262.9059Z" fill="#f4b03f"/></g><g><path d="M435.1769,336.4528c2.2111,8.0393-10.4653,11.3275-12.44,3.2261C420.5261,331.64,433.2026,328.3519,435.1769,336.4528Z" fill="#f4b03f"/></g><g><path d="M492.1617,321.6717c2.2112,8.0393-10.4653,11.3276-12.44,3.2261C477.511,316.8591,490.1874,313.5709,492.1617,321.6717Z" fill="#f4b03f"/></g><g><path d="M549.1466,306.8907c2.2111,8.0393-10.4654,11.3275-12.44,3.2261C534.4958,302.0781,547.1723,298.79,549.1466,306.8907Z" fill="#f4b03f"/></g><g><path d="M446.5859,380.4376c2.2112,8.0393-10.4653,11.3275-12.44,3.2261C431.9351,375.625,444.6116,372.3367,446.5859,380.4376Z" fill="#f4b03f"/></g><g><path d="M503.5708,365.6565c2.2111,8.0393-10.4654,11.3276-12.44,3.2261C488.92,360.8439,501.5964,357.5557,503.5708,365.6565Z" fill="#f4b03f"/></g><g><path d="M560.5556,350.8755c2.2111,8.0393-10.4653,11.3275-12.44,3.2261C545.9048,346.0629,558.5813,342.7746,560.5556,350.8755Z" fill="#f4b03f"/></g><g><path d="M295.3742,469.0358c2.2111,8.0393-10.4654,11.3275-12.44,3.2261C280.7234,464.2231,293.4,460.9349,295.3742,469.0358Z" fill="#f4b03f"/></g><g><path d="M352.359,454.2547c2.2111,8.0393-10.4654,11.3276-12.44,3.2261C337.7082,449.4421,350.3847,446.1539,352.359,454.2547Z" fill="#f4b03f"/></g><g><path d="M409.3438,439.4737c2.2111,8.0393-10.4653,11.3275-12.44,3.2261C394.693,434.6611,407.37,431.3728,409.3438,439.4737Z" fill="#f4b03f"/></g><g><path d="M306.7832,513.0206c2.2111,8.0393-10.4654,11.3275-12.44,3.2261C292.1324,508.2079,304.8088,504.92,306.7832,513.0206Z" fill="#f4b03f"/></g><g><path d="M363.768,498.24c2.2111,8.0393-10.4653,11.3276-12.44,3.2261C349.1172,493.4269,361.7937,490.1387,363.768,498.24Z" fill="#f4b03f"/></g><g><path d="M420.7528,483.4585c2.2112,8.0393-10.4653,11.3275-12.44,3.2261C406.1021,478.6459,418.7785,475.3576,420.7528,483.4585Z" fill="#f4b03f"/></g><g><path d="M318.1922,557.0054c2.2111,8.0393-10.4653,11.3275-12.44,3.2261C303.5414,552.1927,316.2179,548.9045,318.1922,557.0054Z" fill="#f4b03f"/></g><g><path d="M375.177,542.2243c2.2112,8.0393-10.4653,11.3276-12.44,3.2261C360.5262,537.4117,373.2027,534.1235,375.177,542.2243Z" fill="#f4b03f"/></g><g><path d="M432.1619,527.4433c2.2111,8.0393-10.4654,11.3275-12.44,3.2261C417.5111,522.6307,430.1875,519.3424,432.1619,527.4433Z" fill="#f4b03f"/></g><g><path d="M329.6012,600.99c2.2111,8.0393-10.4653,11.3275-12.44,3.2261C314.95,596.1775,327.6269,592.8893,329.6012,600.99Z" fill="#f4b03f"/></g><g><path d="M386.5861,586.2091c2.2111,8.0393-10.4654,11.3276-12.44,3.2261C371.9353,581.3965,384.6117,578.1083,386.5861,586.2091Z" fill="#f4b03f"/></g><g><path d="M443.5709,571.4281c2.2111,8.0393-10.4654,11.3275-12.44,3.2261C428.92,566.6155,441.5966,563.3272,443.5709,571.4281Z" fill="#f4b03f"/></g><g><path d="M458.586,426.701c2.2111,8.0393-10.4653,11.3275-12.44,3.2261C443.9352,421.8883,456.6117,418.6,458.586,426.701Z" fill="#f4b03f"/></g><g><path d="M515.5708,411.92c2.2111,8.0393-10.4653,11.3276-12.44,3.2261C500.92,407.1073,513.5965,403.8191,515.5708,411.92Z" fill="#f4b03f"/></g><g><path d="M572.5557,397.1389c2.2111,8.0393-10.4654,11.3275-12.44,3.2261C557.9049,392.3263,570.5813,389.038,572.5557,397.1389Z" fill="#f4b03f"/></g><g><path d="M469.995,470.6858c2.2111,8.0393-10.4653,11.3275-12.44,3.2261C455.3442,465.8731,468.0207,462.5849,469.995,470.6858Z" fill="#f4b03f"/></g><g><path d="M526.98,455.9047c2.2112,8.0393-10.4653,11.3276-12.44,3.2261C512.3291,451.0921,525.0055,447.8039,526.98,455.9047Z" fill="#f4b03f"/></g><g><path d="M583.9647,441.1237c2.2111,8.0393-10.4654,11.3275-12.44,3.2261C569.3139,436.3111,581.99,433.0228,583.9647,441.1237Z" fill="#f4b03f"/></g><g><path d="M481.404,514.6706c2.2112,8.0393-10.4653,11.3275-12.44,3.2261C466.7532,509.8579,479.43,506.57,481.404,514.6706Z" fill="#f4b03f"/></g><g><path d="M538.3889,499.89c2.2111,8.0393-10.4654,11.3276-12.44,3.2261C523.7381,495.0769,536.4145,491.7887,538.3889,499.89Z" fill="#f4b03f"/></g><g><path d="M595.3737,485.1085c2.2111,8.0393-10.4653,11.3275-12.44,3.2261C580.7229,480.2959,593.3994,477.0076,595.3737,485.1085Z" fill="#f4b03f"/></g><g><path d="M492.8131,558.6554c2.2111,8.0393-10.4654,11.3275-12.44,3.2261C478.1623,553.8427,490.8387,550.5545,492.8131,558.6554Z" fill="#f4b03f"/></g><g><path d="M549.7979,543.8743c2.2111,8.0393-10.4653,11.3276-12.44,3.2261C535.1471,539.0617,547.8236,535.7735,549.7979,543.8743Z" fill="#f4b03f"/></g><g><path d="M606.7827,529.0933c2.2111,8.0393-10.4653,11.3275-12.44,3.2261C592.1319,524.2807,604.8084,520.9924,606.7827,529.0933Z" fill="#f4b03f"/></g><g><path d="M341.6013,647.2536c2.2111,8.0393-10.4654,11.3275-12.44,3.2261C326.9505,642.4409,339.6269,639.1527,341.6013,647.2536Z" fill="#f4b03f"/></g><g><path d="M398.5861,632.4725c2.2111,8.0393-10.4653,11.3275-12.44,3.2261C383.9353,627.66,396.6118,624.3717,398.5861,632.4725Z" fill="#f4b03f"/></g><g><path d="M455.5709,617.6915c2.2112,8.0393-10.4653,11.3275-12.44,3.2261C440.92,612.8788,453.5966,609.5906,455.5709,617.6915Z" fill="#f4b03f"/></g><g><path d="M353.01,691.2384c2.2111,8.0393-10.4653,11.3275-12.44,3.2261C338.36,686.4257,351.036,683.1375,353.01,691.2384Z" fill="#f4b03f"/></g><g><path d="M409.9951,676.4573c2.2112,8.0393-10.4653,11.3275-12.44,3.2261C395.3443,671.6447,408.0208,668.3565,409.9951,676.4573Z" fill="#f4b03f"/></g><g><path d="M466.98,661.6763c2.2111,8.0393-10.4654,11.3275-12.44,3.2261C452.3292,656.8636,465.0056,653.5754,466.98,661.6763Z" fill="#f4b03f"/></g><g><path d="M364.4193,735.2232c2.2111,8.0393-10.4653,11.3275-12.44,3.2261C349.7685,730.4105,362.445,727.1223,364.4193,735.2232Z" fill="#f4b03f"/></g><g><path d="M421.4042,720.4421c2.2111,8.0393-10.4654,11.3275-12.44,3.2261C406.7534,715.63,419.43,712.3413,421.4042,720.4421Z" fill="#f4b03f"/></g><g><path d="M478.389,705.6611c2.2111,8.0393-10.4654,11.3275-12.44,3.2261C463.7382,700.8484,476.4147,697.56,478.389,705.6611Z" fill="#f4b03f"/></g><g><path d="M375.8283,779.208c2.2112,8.0393-10.4653,11.3275-12.44,3.2261C361.1776,774.3953,373.854,771.1071,375.8283,779.208Z" fill="#f4b03f"/></g><g><path d="M432.8132,764.4269c2.2111,8.0393-10.4654,11.3275-12.44,3.2261C418.1624,759.6143,430.8388,756.3261,432.8132,764.4269Z" fill="#f4b03f"/></g><g><path d="M489.798,749.6459c2.2111,8.0393-10.4653,11.3275-12.44,3.2261C475.1472,744.8332,487.8237,741.545,489.798,749.6459Z" fill="#f4b03f"/></g><g><path d="M504.8131,604.9188c2.2111,8.0393-10.4653,11.3275-12.44,3.2261C490.1623,600.1061,502.8388,596.8179,504.8131,604.9188Z" fill="#f4b03f"/></g><g><path d="M561.7979,590.1377c2.2112,8.0393-10.4653,11.3276-12.44,3.2261C547.1472,585.3251,559.8236,582.0369,561.7979,590.1377Z" fill="#f4b03f"/></g><g><path d="M618.7828,575.3567c2.2111,8.0393-10.4654,11.3275-12.44,3.2261C604.132,570.5441,616.8085,567.2558,618.7828,575.3567Z" fill="#f4b03f"/></g><g><path d="M516.2221,648.9036c2.2112,8.0393-10.4653,11.3275-12.44,3.2261C501.5713,644.0909,514.2478,640.8027,516.2221,648.9036Z" fill="#f4b03f"/></g><g><path d="M573.207,634.1225c2.2111,8.0393-10.4654,11.3276-12.44,3.2261C558.5562,629.31,571.2326,626.0217,573.207,634.1225Z" fill="#f4b03f"/></g><g><path d="M630.1918,619.3415c2.2111,8.0393-10.4653,11.3275-12.44,3.2261C615.541,614.5289,628.2175,611.2406,630.1918,619.3415Z" fill="#f4b03f"/></g><g><path d="M527.6312,692.8884c2.2111,8.0393-10.4654,11.3275-12.44,3.2261C512.98,688.0757,525.6568,684.7875,527.6312,692.8884Z" fill="#f4b03f"/></g><g><path d="M584.616,678.1073c2.2111,8.0393-10.4653,11.3276-12.44,3.2261C569.9652,673.2947,582.6417,670.0065,584.616,678.1073Z" fill="#f4b03f"/></g><g><path d="M641.6008,663.3263c2.2111,8.0393-10.4653,11.3275-12.44,3.2261C626.95,658.5137,639.6265,655.2254,641.6008,663.3263Z" fill="#f4b03f"/></g><g><path d="M539.04,736.8732c2.2111,8.0393-10.4654,11.3275-12.44,3.2261C524.3894,732.0605,537.0659,728.7723,539.04,736.8732Z" fill="#f4b03f"/></g><g><path d="M596.025,722.0921c2.2111,8.0393-10.4653,11.3276-12.44,3.2261C581.3742,717.28,594.0507,713.9913,596.025,722.0921Z" fill="#f4b03f"/></g><g><path d="M653.01,707.3111c2.2112,8.0393-10.4653,11.3275-12.44,3.2261C638.3591,702.4985,651.0355,699.21,653.01,707.3111Z" fill="#f4b03f"/></g></g></g><g><path d="M596.2121,397.1972c-1.2841,1.5292-2.0649,2.4095-2.0649,2.4095l-27.99-18.0649-11.433-25.816c9.5011-8.4921,24.9779-36.202,37.5816-39.784,3.5853-.0777,9.8025,2.6451,5.6923,11.4069-4.1335,8.8116,4.7767,3.9166,16.5418,20.1541C624.4753,361.2093,603.12,388.8789,596.2121,397.1972Z" fill="#f4b03f"/></g><g><path d="M596.2121,397.1972c-1.2841,1.5292-2.0649,2.4095-2.0649,2.4095l-27.99-18.0649-11.433-25.816,8.5222-10.1634Z" fill="#75004c" opacity=".2"/></g><g clip-path="url(#c)"><g><g><path d="M594.1472,399.6067C542.0387,604.75,175.0312,585.4664,303.94,366.2792L365.8865,397.08c5.5746,131.4719,164.3946-4.6378,188.8374-41.3542Z" fill="#4aa566"/></g><g><path d="M249.147,290.818c2.2112,8.0393-10.4653,11.3275-12.44,3.2261C234.4962,286.0053,247.1727,282.7171,249.147,290.818Z" fill="#f4b03f"/></g><g><path d="M306.1319,276.0369c2.2111,8.0393-10.4654,11.3276-12.44,3.2261C291.4811,271.2243,304.1575,267.9361,306.1319,276.0369Z" fill="#f4b03f"/></g><g><path d="M363.1167,261.2559c2.2111,8.0393-10.4653,11.3275-12.44,3.2261C348.4659,256.4433,361.1424,253.155,363.1167,261.2559Z" fill="#f4b03f"/></g><g><path d="M260.5561,334.8028c2.2111,8.0393-10.4654,11.3275-12.44,3.2261C245.9053,329.99,258.5817,326.7019,260.5561,334.8028Z" fill="#f4b03f"/></g><g><path d="M317.5409,320.0217c2.2111,8.0393-10.4654,11.3276-12.44,3.2261C302.89,315.2091,315.5666,311.9209,317.5409,320.0217Z" fill="#f4b03f"/></g><g><path d="M374.5257,305.2407c2.2111,8.0393-10.4653,11.3275-12.44,3.2261C359.8749,300.4281,372.5514,297.14,374.5257,305.2407Z" fill="#f4b03f"/></g><g><path d="M271.9651,378.7876c2.2111,8.0393-10.4654,11.3275-12.44,3.2261C257.3143,373.9749,269.9907,370.6867,271.9651,378.7876Z" fill="#f4b03f"/></g><g><path d="M328.95,364.0065c2.2111,8.0393-10.4653,11.3276-12.44,3.2261C314.2991,359.1939,326.9756,355.9057,328.95,364.0065Z" fill="#f4b03f"/></g><g><path d="M385.9347,349.2255c2.2112,8.0393-10.4653,11.3275-12.44,3.2261C371.284,344.4129,383.96,341.1246,385.9347,349.2255Z" fill="#f4b03f"/></g><g><path d="M283.3741,422.7724c2.2111,8.0393-10.4653,11.3275-12.44,3.2261C268.7233,417.96,281.4,414.6715,283.3741,422.7724Z" fill="#f4b03f"/></g><g><path d="M340.3589,407.9913c2.2112,8.0393-10.4653,11.3276-12.44,3.2261C325.7081,403.1787,338.3846,399.8905,340.3589,407.9913Z" fill="#f4b03f"/></g><g><path d="M397.3438,393.21c2.2111,8.0393-10.4654,11.3275-12.44,3.2261C382.693,388.3977,395.3694,385.1094,397.3438,393.21Z" fill="#f4b03f"/></g><g><path d="M412.3589,248.4832c2.2111,8.0393-10.4654,11.3275-12.44,3.2261C397.7081,243.6706,410.3845,240.3823,412.3589,248.4832Z" fill="#f4b03f"/></g><g><path d="M469.3437,233.7021c2.2111,8.0393-10.4653,11.3276-12.44,3.2261C454.6929,228.89,467.3694,225.6013,469.3437,233.7021Z" fill="#f4b03f"/></g><g><path d="M526.3285,218.9211c2.2112,8.0393-10.4653,11.3275-12.44,3.2261C511.6777,214.1085,524.3542,210.82,526.3285,218.9211Z" fill="#f4b03f"/></g><g><path d="M423.7679,292.468c2.2111,8.0393-10.4653,11.3275-12.44,3.2261C409.1171,287.6554,421.7936,284.3671,423.7679,292.468Z" fill="#f4b03f"/></g><g><path d="M480.7527,277.6869c2.2111,8.0393-10.4653,11.3276-12.44,3.2261C466.1019,272.8743,478.7784,269.5861,480.7527,277.6869Z" fill="#f4b03f"/></g><g><path d="M537.7376,262.9059c2.2111,8.0393-10.4654,11.3275-12.44,3.2261C523.0868,258.0933,535.7632,254.805,537.7376,262.9059Z" fill="#f4b03f"/></g><g><path d="M435.1769,336.4528c2.2111,8.0393-10.4653,11.3275-12.44,3.2261C420.5261,331.64,433.2026,328.3519,435.1769,336.4528Z" fill="#f4b03f"/></g><g><path d="M492.1617,321.6717c2.2112,8.0393-10.4653,11.3276-12.44,3.2261C477.511,316.8591,490.1874,313.5709,492.1617,321.6717Z" fill="#f4b03f"/></g><g><path d="M549.1466,306.8907c2.2111,8.0393-10.4654,11.3275-12.44,3.2261C534.4958,302.0781,547.1723,298.79,549.1466,306.8907Z" fill="#f4b03f"/></g><g><path d="M446.5859,380.4376c2.2112,8.0393-10.4653,11.3275-12.44,3.2261C431.9351,375.625,444.6116,372.3367,446.5859,380.4376Z" fill="#f4b03f"/></g><g><path d="M503.5708,365.6565c2.2111,8.0393-10.4654,11.3276-12.44,3.2261C488.92,360.8439,501.5964,357.5557,503.5708,365.6565Z" fill="#f4b03f"/></g><g><path d="M560.5556,350.8755c2.2111,8.0393-10.4653,11.3275-12.44,3.2261C545.9048,346.0629,558.5813,342.7746,560.5556,350.8755Z" fill="#f4b03f"/></g><g><path d="M295.3742,469.0358c2.2111,8.0393-10.4654,11.3275-12.44,3.2261C280.7234,464.2231,293.4,460.9349,295.3742,469.0358Z" fill="#f4b03f"/></g><g><path d="M352.359,454.2547c2.2111,8.0393-10.4654,11.3276-12.44,3.2261C337.7082,449.4421,350.3847,446.1539,352.359,454.2547Z" fill="#f4b03f"/></g><g><path d="M409.3438,439.4737c2.2111,8.0393-10.4653,11.3275-12.44,3.2261C394.693,434.6611,407.37,431.3728,409.3438,439.4737Z" fill="#f4b03f"/></g><g><path d="M306.7832,513.0206c2.2111,8.0393-10.4654,11.3275-12.44,3.2261C292.1324,508.2079,304.8088,504.92,306.7832,513.0206Z" fill="#f4b03f"/></g><g><path d="M363.768,498.24c2.2111,8.0393-10.4653,11.3276-12.44,3.2261C349.1172,493.4269,361.7937,490.1387,363.768,498.24Z" fill="#f4b03f"/></g><g><path d="M420.7528,483.4585c2.2112,8.0393-10.4653,11.3275-12.44,3.2261C406.1021,478.6459,418.7785,475.3576,420.7528,483.4585Z" fill="#f4b03f"/></g><g><path d="M318.1922,557.0054c2.2111,8.0393-10.4653,11.3275-12.44,3.2261C303.5414,552.1927,316.2179,548.9045,318.1922,557.0054Z" fill="#f4b03f"/></g><g><path d="M375.177,542.2243c2.2112,8.0393-10.4653,11.3276-12.44,3.2261C360.5262,537.4117,373.2027,534.1235,375.177,542.2243Z" fill="#f4b03f"/></g><g><path d="M432.1619,527.4433c2.2111,8.0393-10.4654,11.3275-12.44,3.2261C417.5111,522.6307,430.1875,519.3424,432.1619,527.4433Z" fill="#f4b03f"/></g><g><path d="M329.6012,600.99c2.2111,8.0393-10.4653,11.3275-12.44,3.2261C314.95,596.1775,327.6269,592.8893,329.6012,600.99Z" fill="#f4b03f"/></g><g><path d="M386.5861,586.2091c2.2111,8.0393-10.4654,11.3276-12.44,3.2261C371.9353,581.3965,384.6117,578.1083,386.5861,586.2091Z" fill="#f4b03f"/></g><g><path d="M443.5709,571.4281c2.2111,8.0393-10.4654,11.3275-12.44,3.2261C428.92,566.6155,441.5966,563.3272,443.5709,571.4281Z" fill="#f4b03f"/></g><g><path d="M458.586,426.701c2.2111,8.0393-10.4653,11.3275-12.44,3.2261C443.9352,421.8883,456.6117,418.6,458.586,426.701Z" fill="#f4b03f"/></g><g><path d="M515.5708,411.92c2.2111,8.0393-10.4653,11.3276-12.44,3.2261C500.92,407.1073,513.5965,403.8191,515.5708,411.92Z" fill="#f4b03f"/></g><g><path d="M572.5557,397.1389c2.2111,8.0393-10.4654,11.3275-12.44,3.2261C557.9049,392.3263,570.5813,389.038,572.5557,397.1389Z" fill="#f4b03f"/></g><g><path d="M469.995,470.6858c2.2111,8.0393-10.4653,11.3275-12.44,3.2261C455.3442,465.8731,468.0207,462.5849,469.995,470.6858Z" fill="#f4b03f"/></g><g><path d="M526.98,455.9047c2.2112,8.0393-10.4653,11.3276-12.44,3.2261C512.3291,451.0921,525.0055,447.8039,526.98,455.9047Z" fill="#f4b03f"/></g><g><path d="M583.9647,441.1237c2.2111,8.0393-10.4654,11.3275-12.44,3.2261C569.3139,436.3111,581.99,433.0228,583.9647,441.1237Z" fill="#f4b03f"/></g><g><path d="M481.404,514.6706c2.2112,8.0393-10.4653,11.3275-12.44,3.2261C466.7532,509.8579,479.43,506.57,481.404,514.6706Z" fill="#f4b03f"/></g><g><path d="M538.3889,499.89c2.2111,8.0393-10.4654,11.3276-12.44,3.2261C523.7381,495.0769,536.4145,491.7887,538.3889,499.89Z" fill="#f4b03f"/></g><g><path d="M595.3737,485.1085c2.2111,8.0393-10.4653,11.3275-12.44,3.2261C580.7229,480.2959,593.3994,477.0076,595.3737,485.1085Z" fill="#f4b03f"/></g><g><path d="M492.8131,558.6554c2.2111,8.0393-10.4654,11.3275-12.44,3.2261C478.1623,553.8427,490.8387,550.5545,492.8131,558.6554Z" fill="#f4b03f"/></g><g><path d="M549.7979,543.8743c2.2111,8.0393-10.4653,11.3276-12.44,3.2261C535.1471,539.0617,547.8236,535.7735,549.7979,543.8743Z" fill="#f4b03f"/></g><g><path d="M606.7827,529.0933c2.2111,8.0393-10.4653,11.3275-12.44,3.2261C592.1319,524.2807,604.8084,520.9924,606.7827,529.0933Z" fill="#f4b03f"/></g><g><path d="M341.6013,647.2536c2.2111,8.0393-10.4654,11.3275-12.44,3.2261C326.9505,642.4409,339.6269,639.1527,341.6013,647.2536Z" fill="#f4b03f"/></g><g><path d="M398.5861,632.4725c2.2111,8.0393-10.4653,11.3275-12.44,3.2261C383.9353,627.66,396.6118,624.3717,398.5861,632.4725Z" fill="#f4b03f"/></g><g><path d="M455.5709,617.6915c2.2112,8.0393-10.4653,11.3275-12.44,3.2261C440.92,612.8788,453.5966,609.5906,455.5709,617.6915Z" fill="#f4b03f"/></g><g><path d="M353.01,691.2384c2.2111,8.0393-10.4653,11.3275-12.44,3.2261C338.36,686.4257,351.036,683.1375,353.01,691.2384Z" fill="#f4b03f"/></g><g><path d="M409.9951,676.4573c2.2112,8.0393-10.4653,11.3275-12.44,3.2261C395.3443,671.6447,408.0208,668.3565,409.9951,676.4573Z" fill="#f4b03f"/></g><g><path d="M466.98,661.6763c2.2111,8.0393-10.4654,11.3275-12.44,3.2261C452.3292,656.8636,465.0056,653.5754,466.98,661.6763Z" fill="#f4b03f"/></g><g><path d="M364.4193,735.2232c2.2111,8.0393-10.4653,11.3275-12.44,3.2261C349.7685,730.4105,362.445,727.1223,364.4193,735.2232Z" fill="#f4b03f"/></g><g><path d="M421.4042,720.4421c2.2111,8.0393-10.4654,11.3275-12.44,3.2261C406.7534,715.63,419.43,712.3413,421.4042,720.4421Z" fill="#f4b03f"/></g><g><path d="M478.389,705.6611c2.2111,8.0393-10.4654,11.3275-12.44,3.2261C463.7382,700.8484,476.4147,697.56,478.389,705.6611Z" fill="#f4b03f"/></g><g><path d="M375.8283,779.208c2.2112,8.0393-10.4653,11.3275-12.44,3.2261C361.1776,774.3953,373.854,771.1071,375.8283,779.208Z" fill="#f4b03f"/></g><g><path d="M432.8132,764.4269c2.2111,8.0393-10.4654,11.3275-12.44,3.2261C418.1624,759.6143,430.8388,756.3261,432.8132,764.4269Z" fill="#f4b03f"/></g><g><path d="M489.798,749.6459c2.2111,8.0393-10.4653,11.3275-12.44,3.2261C475.1472,744.8332,487.8237,741.545,489.798,749.6459Z" fill="#f4b03f"/></g><g><path d="M504.8131,604.9188c2.2111,8.0393-10.4653,11.3275-12.44,3.2261C490.1623,600.1061,502.8388,596.8179,504.8131,604.9188Z" fill="#f4b03f"/></g><g><path d="M561.7979,590.1377c2.2112,8.0393-10.4653,11.3276-12.44,3.2261C547.1472,585.3251,559.8236,582.0369,561.7979,590.1377Z" fill="#f4b03f"/></g><g><path d="M618.7828,575.3567c2.2111,8.0393-10.4654,11.3275-12.44,3.2261C604.132,570.5441,616.8085,567.2558,618.7828,575.3567Z" fill="#f4b03f"/></g><g><path d="M516.2221,648.9036c2.2112,8.0393-10.4653,11.3275-12.44,3.2261C501.5713,644.0909,514.2478,640.8027,516.2221,648.9036Z" fill="#f4b03f"/></g><g><path d="M573.207,634.1225c2.2111,8.0393-10.4654,11.3276-12.44,3.2261C558.5562,629.31,571.2326,626.0217,573.207,634.1225Z" fill="#f4b03f"/></g><g><path d="M630.1918,619.3415c2.2111,8.0393-10.4653,11.3275-12.44,3.2261C615.541,614.5289,628.2175,611.2406,630.1918,619.3415Z" fill="#f4b03f"/></g><g><path d="M527.6312,692.8884c2.2111,8.0393-10.4654,11.3275-12.44,3.2261C512.98,688.0757,525.6568,684.7875,527.6312,692.8884Z" fill="#f4b03f"/></g><g><path d="M584.616,678.1073c2.2111,8.0393-10.4653,11.3276-12.44,3.2261C569.9652,673.2947,582.6417,670.0065,584.616,678.1073Z" fill="#f4b03f"/></g><g><path d="M641.6008,663.3263c2.2111,8.0393-10.4653,11.3275-12.44,3.2261C626.95,658.5137,639.6265,655.2254,641.6008,663.3263Z" fill="#f4b03f"/></g><g><path d="M539.04,736.8732c2.2111,8.0393-10.4654,11.3275-12.44,3.2261C524.3894,732.0605,537.0659,728.7723,539.04,736.8732Z" fill="#f4b03f"/></g><g><path d="M596.025,722.0921c2.2111,8.0393-10.4653,11.3276-12.44,3.2261C581.3742,717.28,594.0507,713.9913,596.025,722.0921Z" fill="#f4b03f"/></g><g><path d="M653.01,707.3111c2.2112,8.0393-10.4653,11.3275-12.44,3.2261C638.3591,702.4985,651.0355,699.21,653.01,707.3111Z" fill="#f4b03f"/></g></g></g><g><path d="M457.2592,314.506c3.38,32.0128,9.4467,96.442,6.7161,123.1293-8.7019-14.5251-85.4242-126.9217-86.9546-141.0023,4.7184-1.71,17.4586-6.9522,22.459-6.173,15.0368.008,43.9722-7.7916,55.7171,5.3786C455.1968,295.8386,456.0566,303.1144,457.2592,314.506Z" fill="#ea0048"/></g><g><path d="M425.1411,313.58l-18.04,26.7971c-6.6979-8.3312-28.0994-33.1551-30.08-43.7437,4.5637-1.7059,17.57-6.9553,22.4587-6.1737Z" fill="#75004c"/></g><g><path d="M455.0141,295.6741l1.6884,30.96L425.1411,313.58l9.35-25.5857A30.0167,30.0167,0,0,1,455.0141,295.6741Z" fill="#75004c"/></g><g><g><g><path d="M436.7079,195.8175c.7926-1.6543-5.7738-12.1794-6.4671-13.6866-23.3577,4.3454-34.522,5.8165-54.2342,20.8366-10.322,8.0354-17.6381,26.4334-22.1,38.1364C371.485,327.8738,432.8856,201.0214,436.7079,195.8175Z" fill="#75004c"/></g><g><path d="M437.0309,291.8492c3.9023,22.8468-30.3819,33.0708-39.5593,11.5307-5.0151-10.9462-15.1385-33.0009-20.159-43.9483l52.8849,8.6477C431.2078,271.8849,436.501,288.2822,437.0309,291.8492Z" fill="#f4b03f"/></g><g><path d="M435.7842,286.8441c-26.0416,5.0727-50.6055-.9059-58.4716-27.4125l52.8849,8.6477Z" fill="#75004c" opacity=".1"/></g><g><path d="M444.662,242.5445c6.3984,52.42-57.0918,44.6232-76.12,15.2384-15.6262,24.4079-35.5521-43.357.31-10.7134,0,0-3.813-20.5162-9.919-30.4725a27.4625,27.4625,0,0,0,24.4343-.7555,27.23,27.23,0,0,1-14.7178-1.88c19.43-.7077,57.6915-4.2126,67.8759-20.4571C436.5258,193.5049,444.3617,219.1011,444.662,242.5445Z" fill="#f4b03f"/></g><g><path d="M444.662,242.5445a70.0767,70.0767,0,0,1-2.21,19.9252C431.5743,259.8929,433.3133,242.745,444.662,242.5445Z" fill="#ea0048" opacity=".07"/></g><g><path d="M393.245,259.5542a10.1711,10.1711,0,0,1-8.7525,12.8878C360.8911,263.4615,383.4335,240.2984,393.245,259.5542Z" fill="#ea0048" opacity=".07"/></g><g><path d="M351.8227,248.4112c3.1655-7.9776,9.1168,4.8024,11.1,3.9981-.64-1.3133-6.8807-1.9577-7.6855,1.5212,2.5008-3.0747,5.4576-.5647,8.192.1084C366.5408,250.14,352.2247,239.1133,351.8227,248.4112Z" fill="#ce8b29"/></g><g><path d="M403.4872,168.221l-30.8245,28.8358-1.0213,2.4026c-17.4246-7.1551-24.2292-18.47-20.2424-26.182a46.5565,46.5565,0,0,1,11.8426-8.3374C398.2736,147.46,403.4872,168.221,403.4872,168.221Z" fill="#ff337d"/></g><g><path d="M371.6414,199.4594l-16.54,38.7461c-18.3852-7.9738-25.1153-44.0936-3.7032-64.9269C347.4114,180.9911,354.2284,192.3123,371.6414,199.4594Z" fill="#ea0048"/></g><g><path d="M355.0982,238.2005c5.0512-87.2871,134.6343-118.96,81.4231-44.7012C410.0164,179.4943,369.4805,209.8858,355.0982,238.2005Z" fill="#4949bf"/></g></g><g><path d="M417.0587,256.0047c-.3909.1141-.8.2141-1.2309.301l-.283-1.3972c7.1-1.4074,7.99-6.7078,8.1016-7.8205L409.903,224.12l1.222-.7326,13.9679,23.3436C425.0724,247.1711,424.9,253.5694,417.0587,256.0047Z" fill="#ea0048"/></g><g><path d="M414.6773,270.5124c-7.7226,2.2151-13.855-4.4524-14.1236-4.75l1.0576-.9557c.0622.069,6.3358,6.8349,13.6295,4.0133l.5174,1.3261C415.3949,270.2892,415.0348,270.41,414.6773,270.5124Z" fill="#ea0048"/></g><g><path d="M397.6277,241.1933c1.07,3.5336-4.5047,5.1326-5.47,1.5687C391.0878,239.2286,396.6622,237.63,397.6277,241.1933Z" fill="#75004c"/></g><g><path d="M436.226,230.1221c1.07,3.5336-4.5047,5.1326-5.47,1.5688C429.6861,228.1575,435.2605,226.5584,436.226,230.1221Z" fill="#75004c"/></g><g><path d="M380.3555,230.095l-1.3677.0916c-1.6207-6.228,5.7745-10.56,9.0368-9.2061l-.2433,1.3486C384.9751,221.24,378.986,224.73,380.3555,230.095Z" fill="#75004c"/></g><g><path d="M438.0725,212.1869c-1.9239-3.4941-7.3937-3.5087-8.8016-1.5569l-.9556-.9825c1.63-2.3668,8.5433-2.5273,10.8221,1.6771Z" fill="#75004c"/></g></g><g><path d="M416.059 327.07L429.091 341.93 439.747 338.889 444.038 321.396 425.141 313.58 416.059 327.07z" fill="#1d1d91"/></g><g><path d="M429.091 341.93L427.517 381.531 463.975 437.635 464.651 368.45 439.747 338.889 429.091 341.93z" fill="#4949bf"/></g><g><path d="M377.0251,296.6312,331.766,321.3751,360.1384,350.97l32.1787-7.925-6.8621,21.9723s60.2767,48.6666,78.5219,72.6182C463.9769,437.6359,435.6578,368.2944,377.0251,296.6312Z" fill="#f2f2f2"/></g><g><path d="M488.9573,336.1624l-13.6055.2423,9.6354,12.9631s-12.3078,32.8973-21.0119,88.2675c0,0-7.1461-135.2086-19.4955-148.1239.52.2063,49.7282,21.4354,52.2343,22.5012Z" fill="#f2f2f2"/></g><g><path d="M594.1472,399.6067a169.7,169.7,0,0,1-7.737,24.4964L539.4436,372.86c9.6395-10.1884,15.28-17.1343,15.28-17.1343Z" fill="#f2f2f2"/></g><g><path d="M366.1686,422.93c48.8725,86.06,127.8884-18.2017,173.5624-54.1992,15.6411,17.9453,31.8163,36.79,46.6792,55.372-16.5039-15.7466-33.2843-32.8281-49.1225-49.267l4.1294.1821c-34.1523,29.6836-63.5632,69.8745-108.1129,84.1532C405.0663,468.7879,374.6625,450.8213,366.1686,422.93Z" fill="#297a40"/></g><g><path d="M331.766,321.3751c-43.17,46.5572-65,117.3908-37.4272,177.1518,40.7215,99.0874,191.67,42.8506,246.5343-14.9624C493.193,542.0306,367.94,593.4836,306.0413,531.65,253.7037,469.5277,274.3236,372.9873,331.766,321.3751Z" fill="#297a40"/></g></g><g><g data-name="Statistic 4"><g><g><g><path d="M724.9021,387.95l-1.6437-.949a10.517,10.517,0,0,1-4.7576-8.2408l.0007-169.3929a10.5165,10.5165,0,0,1,4.7579-8.2409L869.9585,116.43a10.516,10.516,0,0,1,9.5155,0l1.6428.9483a10.5165,10.5165,0,0,1,4.7578,8.2407l-.0007,169.3939a10.518,10.518,0,0,1-4.7579,8.241L734.4176,387.95A10.5164,10.5164,0,0,1,724.9021,387.95Z" fill="#00dfbf"/></g><g><path d="M724.9021,387.95l-1.6437-.949a10.517,10.517,0,0,1-4.7576-8.2408l.0007-169.3929a10.5165,10.5165,0,0,1,4.7579-8.2409L869.9585,116.43a10.516,10.516,0,0,1,9.5155,0l1.6428.9483a10.5165,10.5165,0,0,1,4.7578,8.2407l-.0007,169.3939a10.518,10.518,0,0,1-4.7579,8.241L734.4176,387.95A10.5164,10.5164,0,0,1,724.9021,387.95Z" fill="#77c68d"/></g></g><g><g><path d="M718.501,294.0636V209.3674a9.7247,9.7247,0,0,1,1.3936-4.6893l20.9239,12.0794V384.2552l-6.4,3.6952a10.5178,10.5178,0,0,1-9.5137.0007l-1.65-.9523a10.516,10.516,0,0,1-4.7536-8.2385Z" fill="#00dfbf"/></g><g><path d="M718.501,294.0636V209.3674a9.7247,9.7247,0,0,1,1.3936-4.6893l20.9239,12.0794V384.2552l-6.4,3.6952a10.5178,10.5178,0,0,1-9.5137.0007l-1.65-.9523a10.516,10.516,0,0,1-4.7536-8.2385Z" fill="#4aa566"/></g></g><g><g><path d="M881.1168,122.872,734.4176,207.5687a10.516,10.516,0,0,0-4.7578,8.2407V385.2033c0,3.0344,2.13,4.264,4.7578,2.7471L881.116,303.2537a10.518,10.518,0,0,0,4.7579-8.241l.0007-169.3939C885.8746,122.5847,883.7445,121.3548,881.1168,122.872Z" fill="#00dfbf"/></g><g><path d="M881.1168,122.872,734.4176,207.5687a10.516,10.516,0,0,0-4.7578,8.2407V385.2033c0,3.0344,2.13,4.264,4.7578,2.7471L881.116,303.2537a10.518,10.518,0,0,0,4.7579-8.241l.0007-169.3939C885.8746,122.5847,883.7445,121.3548,881.1168,122.872Z" fill="#f2f2f2"/></g></g></g><g><g><path d="M781.68,283.2385c0-19.2106,11.68-41.5273,26.0878-49.8458V212.3851c-12.9415,7.4718-24.3743,21.3437-32.5186,39.4553-14.5435,32.343-11.7742,65.8758,6.1853,74.8981l9.9179-22.0561C785.4535,301.7111,781.68,294.1536,781.68,283.2385Z" fill="#f4b03f"/></g><g><path d="M807.7679,212.3851v21.0076c14.4079-8.3182,26.0877.5116,26.0877,19.7222s-11.68,41.5273-26.0877,49.8455c-6.2217,3.592-11.9319,3.9805-16.4154,1.722l-9.9179,22.0561c7.9024,3.97,16.165,3.1,26.3333-2.77,23.11-13.3425,41.8438-49.1372,41.8438-79.95S830.8776,199.0427,807.7679,212.3851Z" fill="#75004c"/></g><g><path d="M807.7682,323.9683c23.1094-13.3425,41.843-49.1372,41.843-79.95L833.85,253.2923c-.071,19.1705-11.7181,41.3751-26.0814,49.6681-6.2222,3.592-11.9324,3.9805-16.4154,1.722l-9.9179,22.0561C789.3372,330.708,797.6,329.8389,807.7682,323.9683Z" fill="#ea0048"/></g></g><g><g><g><path d="M740.8183,218.51a8.9216,8.9216,0,0,0-4.0361,6.9914c0,2.5744,1.8075,3.6179,4.0368,2.3307a8.9208,8.9208,0,0,0,4.036-6.9914C744.8545,218.2672,743.0473,217.2237,740.8183,218.51Z" fill="#4949bf"/></g><g><path d="M781.4349,200.07a6.3738,6.3738,0,0,1-2.9728,4.9375l-27.5289,15.8939c-1.6422.9481-2.9733.2746-2.9728-1.5044a6.3786,6.3786,0,0,1,2.9743-4.9383L778.46,198.566C780.1026,197.6177,781.4341,198.2912,781.4349,200.07Z" fill="#ea0048"/></g></g><g><g><path d="M787.8228,191.2557a8.922,8.922,0,0,0-4.0358,6.9914c0,2.5744,1.8072,3.6179,4.0365,2.3307a8.92,8.92,0,0,0,4.0361-6.9914C791.8591,191.0122,790.0519,189.969,787.8228,191.2557Z" fill="#4949bf"/></g><g><path d="M828.4394,172.8152a6.3733,6.3733,0,0,1-2.9726,4.9376l-27.529,15.8939c-1.6423.9481-2.9734.2746-2.9728-1.5045a6.3792,6.3792,0,0,1,2.9743-4.9383l27.5256-15.8926C827.1071,170.3629,828.4389,171.0364,828.4394,172.8152Z" fill="#ea0048"/></g></g><g><g><path d="M834.8276,164.0009a8.9215,8.9215,0,0,0-4.036,6.9914c0,2.5744,1.8072,3.618,4.0367,2.3307a8.92,8.92,0,0,0,4.0358-6.9914C838.8639,163.7575,837.0564,162.7142,834.8276,164.0009Z" fill="#4949bf"/></g><g><path d="M875.4442,145.5605a6.3735,6.3735,0,0,1-2.9728,4.9375l-27.5288,15.8939c-1.6423.9481-2.9734.2746-2.9729-1.5044a6.3787,6.3787,0,0,1,2.9744-4.9383L872.47,144.0565C874.1119,143.1082,875.4435,143.7817,875.4442,145.5605Z" fill="#ea0048"/></g></g></g></g><g data-name="Statistic 3"><g><g><path d="M528.0131,294.9755l-1.8952-1.0941a12.1269,12.1269,0,0,1-5.4862-9.5026l.0008-150.7448a12.1281,12.1281,0,0,1,5.4863-9.5026L695.2773,26.4678a12.1275,12.1275,0,0,1,10.9725,0l1.894,1.0935a12.1268,12.1268,0,0,1,5.4863,9.5024L713.6293,187.81a12.1268,12.1268,0,0,1-5.4863,9.5024L538.9856,294.9758A12.1256,12.1256,0,0,1,528.0131,294.9755Z" fill="#ffcc83"/></g><g><path d="M520.6322,231.297V133.634a11.2126,11.2126,0,0,1,1.607-5.4072l24.1273,13.929V290.7149l-7.3806,4.2609a12.1282,12.1282,0,0,1-10.97.0009l-1.9024-1.0981a12.1255,12.1255,0,0,1-5.4811-9.5Z" fill="#f4b03f"/></g><g><path d="M708.1438,33.8963,538.9856,131.56a12.1261,12.1261,0,0,0-5.4863,9.5024V291.8085c0,3.4986,2.4563,4.9168,5.4863,3.1673L708.143,197.3123a12.1268,12.1268,0,0,0,5.4863-9.5024L713.63,37.0637C713.63,33.5651,711.1738,32.1469,708.1438,33.8963Z" fill="#f2f2f2"/></g></g><g><g><path d="M552.6049,242.758V192.7215A26.79,26.79,0,0,1,566,169.5214h0a11.2344,11.2344,0,0,1,16.8168,8.8444h0a8.7465,8.7465,0,0,0,13.1961,6.8249h0a21.5306,21.5306,0,0,0,10.4833-17.4093l2.22-43.8744a22.519,22.519,0,0,1,11.1212-18.3h0A12.6516,12.6516,0,0,1,638.852,115.75l1.5036,24.4338A7.5525,7.5525,0,0,0,651.67,146.261h0a24.1372,24.1372,0,0,0,11.9063-18.1141l1.0225-8.79a25.1013,25.1013,0,0,1,12.4187-18.8588h0a11.5958,11.5958,0,0,1,17.3771,10.052v50.3459Z" fill="#4aa566"/></g><g><g fill="#fafafa"><path d="M568.0536,171.5984a.9089.9089,0,0,1-.9091-.9093v-1.82a.9091.9091,0,1,1,1.8181,0v1.82A.9088.9088,0,0,1,568.0536,171.5984Z" fill="inherit"/><path d="M568.0536,229.3209a.9089.9089,0,0,1-.9091-.9091v-3.6084a.9091.9091,0,0,1,1.8181,0v3.6084A.9089.9089,0,0,1,568.0536,229.3209Zm0-7.2151a.9089.9089,0,0,1-.9091-.9093v-3.6081a.9091.9091,0,1,1,1.8181,0v3.6081A.9088.9088,0,0,1,568.0536,222.1058Zm0-7.2168a.9089.9089,0,0,1-.9091-.909v-3.6067a.9091.9091,0,1,1,1.8181,0V213.98A.9088.9088,0,0,1,568.0536,214.889Zm0-7.215a.9089.9089,0,0,1-.9091-.9091V203.158a.9091.9091,0,1,1,1.8181,0v3.6069A.9089.9089,0,0,1,568.0536,207.674Zm0-7.2151a.9089.9089,0,0,1-.9091-.909v-3.6084a.9091.9091,0,1,1,1.8181,0V199.55A.9088.9088,0,0,1,568.0536,200.4589Zm0-7.2153a.9089.9089,0,0,1-.9091-.9091v-3.6081a.9091.9091,0,0,1,1.8181,0v3.6081A.9089.9089,0,0,1,568.0536,193.2436Zm0-7.2151a.9089.9089,0,0,1-.9091-.909v-3.6084a.9091.9091,0,1,1,1.8181,0V185.12A.9088.9088,0,0,1,568.0536,186.0285Zm0-7.215a.9089.9089,0,0,1-.9091-.9091V174.296a.9091.9091,0,0,1,1.8181,0v3.6084A.9089.9089,0,0,1,568.0536,178.8135Z" fill="inherit"/><path d="M568.0536,234.7474a.9089.9089,0,0,1-.9091-.9091v-1.82a.9091.9091,0,1,1,1.8181,0v1.82A.9088.9088,0,0,1,568.0536,234.7474Z" fill="inherit"/></g><g><path d="M568.0533,165.7659a5.94,5.94,0,0,0-2.6872,4.6548c0,1.7141,1.2035,2.4089,2.6878,1.5518a5.94,5.94,0,0,0,2.6872-4.6551C570.7408,165.6036,569.5376,164.9089,568.0533,165.7659Z" fill="#2b454e"/></g></g><g><g fill="#fafafa"><path d="M623.4994,106.6284a.9088.9088,0,0,1-.9091-.909V103.9a.9091.9091,0,1,1,1.8181,0v1.82A.9088.9088,0,0,1,623.4994,106.6284Z" fill="inherit"/><path d="M623.4994,197.1453a.9089.9089,0,0,1-.9091-.9093v-3.7722a.9091.9091,0,1,1,1.8181,0v3.7722A.9088.9088,0,0,1,623.4994,197.1453Zm0-7.5434a.9089.9089,0,0,1-.9091-.9091V184.92a.9091.9091,0,1,1,1.8181,0v3.7724A.9089.9089,0,0,1,623.4994,189.6019Zm0-7.5435a.9088.9088,0,0,1-.9091-.9091v-3.771a.9091.9091,0,0,1,1.8181,0v3.771A.9088.9088,0,0,1,623.4994,182.0584Zm0-7.5434a.9089.9089,0,0,1-.9091-.9091v-3.771a.9091.9091,0,1,1,1.8181,0v3.771A.9089.9089,0,0,1,623.4994,174.515Zm0-7.5421a.9088.9088,0,0,1-.9091-.909v-3.7725a.9091.9091,0,0,1,1.8181,0v3.7725A.9088.9088,0,0,1,623.4994,166.9729Zm0-7.5434a.9089.9089,0,0,1-.9091-.9091V154.748a.9091.9091,0,1,1,1.8181,0V158.52A.9089.9089,0,0,1,623.4994,159.43Zm0-7.5435a.9088.9088,0,0,1-.9091-.909v-3.7711a.9091.9091,0,0,1,1.8181,0v3.7711A.9088.9088,0,0,1,623.4994,151.886Zm0-7.5434a.9089.9089,0,0,1-.9091-.9091v-3.771a.9091.9091,0,1,1,1.8181,0v3.771A.9089.9089,0,0,1,623.4994,144.3426Zm0-7.5421a.9088.9088,0,0,1-.9091-.909V132.119a.9091.9091,0,0,1,1.8181,0v3.7725A.9088.9088,0,0,1,623.4994,136.8005Zm0-7.5434a.9089.9089,0,0,1-.9091-.9091v-3.7724a.9091.9091,0,1,1,1.8181,0v3.7724A.9089.9089,0,0,1,623.4994,129.2571Zm0-7.5435a.9088.9088,0,0,1-.9091-.909v-3.7711a.9091.9091,0,0,1,1.8181,0v3.7711A.9088.9088,0,0,1,623.4994,121.7136Zm0-7.5431a.9089.9089,0,0,1-.9091-.9091V109.49a.9091.9091,0,1,1,1.8181,0v3.771A.9089.9089,0,0,1,623.4994,114.1705Z" fill="inherit"/><path d="M623.4994,202.7359a.9088.9088,0,0,1-.9091-.9091v-1.82a.9091.9091,0,1,1,1.8181,0v1.82A.9088.9088,0,0,1,623.4994,202.7359Z" fill="inherit"/></g><g><path d="M623.4994,100.7962a5.9411,5.9411,0,0,0-2.6873,4.6551c0,1.7141,1.2036,2.4089,2.6878,1.5518a5.94,5.94,0,0,0,2.6873-4.6551C626.1869,100.6342,624.9836,99.94,623.4994,100.7962Z" fill="#2b454e"/></g></g><g><g fill="#fafafa"><path d="M679.0152,102.3747a.9088.9088,0,0,1-.909-.909v-1.82a.9091.9091,0,1,1,1.8181,0v1.82A.9088.9088,0,0,1,679.0152,102.3747Z" fill="inherit"/><path d="M679.0152,165.3651a.9088.9088,0,0,1-.909-.909v-3.5a.9091.9091,0,1,1,1.8181,0v3.5A.9088.9088,0,0,1,679.0152,165.3651Zm0-6.999a.9088.9088,0,0,1-.909-.909v-3.499a.9091.9091,0,0,1,1.8181,0v3.499A.9088.9088,0,0,1,679.0152,158.3661Zm0-6.999a.909.909,0,0,1-.909-.9093v-3.4987a.9091.9091,0,0,1,1.8181,0v3.4987A.9091.9091,0,0,1,679.0152,151.3671Zm0-6.9993a.9088.9088,0,0,1-.909-.909V139.96a.9091.9091,0,1,1,1.8181,0v3.4989A.9088.9088,0,0,1,679.0152,144.3678Zm0-6.999a.9088.9088,0,0,1-.909-.909v-3.4989a.9091.9091,0,1,1,1.8181,0V136.46A.9088.9088,0,0,1,679.0152,137.3688Zm0-6.9992a.9089.9089,0,0,1-.909-.9091v-3.4986a.9091.9091,0,1,1,1.8181,0v3.4986A.9089.9089,0,0,1,679.0152,130.37Zm0-6.999a.9089.9089,0,0,1-.909-.9091v-3.4989a.9091.9091,0,1,1,1.8181,0v3.4989A.9089.9089,0,0,1,679.0152,123.3706Zm0-6.999a.9089.9089,0,0,1-.909-.9091v-3.4989a.9091.9091,0,1,1,1.8181,0v3.4989A.9089.9089,0,0,1,679.0152,116.3716Zm0-6.9993a.9088.9088,0,0,1-.909-.9091v-3.4986a.9091.9091,0,1,1,1.8181,0v3.4986A.9088.9088,0,0,1,679.0152,109.3723Z" fill="inherit"/><path d="M679.0152,170.6836a.9088.9088,0,0,1-.909-.9091v-1.8181a.9091.9091,0,1,1,1.8181,0v1.8181A.9088.9088,0,0,1,679.0152,170.6836Z" fill="inherit"/></g><g><path d="M679.015,96.5425a5.9406,5.9406,0,0,0-2.6873,4.6548c0,1.7141,1.2033,2.4089,2.6878,1.5518a5.9394,5.9394,0,0,0,2.6873-4.6548C681.7025,96.3805,680.499,95.6855,679.015,96.5425Z" fill="#2b454e"/></g></g><g><path d="M552.6064,263.8449a1.4366,1.4366,0,0,1-.72-2.6809l141.7888-81.8624a1.4368,1.4368,0,0,1,1.4366,2.4887L553.3232,263.6527A1.4284,1.4284,0,0,1,552.6064,263.8449Z" fill="#75004c"/></g></g></g><g data-name="Statistic 2"><g><g><path d="M231.2254,746.9519l-1.8952-1.0941a12.1269,12.1269,0,0,1-5.4862-9.5026l.0008-150.7448a12.1281,12.1281,0,0,1,5.4863-9.5026L398.49,478.4442a12.1275,12.1275,0,0,1,10.9725,0l1.894,1.0935a12.1268,12.1268,0,0,1,5.4863,9.5024l-.0008,150.7462a12.1268,12.1268,0,0,1-5.4863,9.5024L242.1979,746.9522A12.1256,12.1256,0,0,1,231.2254,746.9519Z" fill="#ffcc83"/></g><g><path d="M223.8445,683.2734V585.61a11.2126,11.2126,0,0,1,1.607-5.4072l24.1273,13.929V742.6913l-7.3806,4.2609a12.1282,12.1282,0,0,1-10.97.0009l-1.9024-1.0981a12.1255,12.1255,0,0,1-5.4811-9.5Z" fill="#f4b03f"/></g><g><path d="M411.3561,485.8728,242.1979,583.5363a12.1262,12.1262,0,0,0-5.4862,9.5024V743.7849c0,3.4986,2.4562,4.9168,5.4862,3.1673l169.1574-97.6635a12.1268,12.1268,0,0,0,5.4863-9.5024l.0008-150.7462C416.8424,485.5415,414.3861,484.1233,411.3561,485.8728Z" fill="#f2f2f2"/></g></g><g><g><path d="M385.6944,635.0723c-4.4039,2.5428-11.1422,3.046-16.2263-9.3682s-9.6351-22.4232-15.8608-18.2392c-4.3441,2.92-3.7638,6.8936-7.6574,9.1414-6.1043,3.5246-10.8849-11.6494-13.04-25.8131-3.06-20.1081-6.0227-25.3722-11.4992-22.343-8.1427,4.5041-7.4444,17.8809-7.4444,30.1742,0,11.0125-.0011,16.7451-5.978,19.1931-3.9531,1.6189-7.7976-7.9322-9.3776-15.292s-5.0222-10.9044-8.5542-8.8653-7.3351,6.9025-7.5216,26.384c-.1648,17.2563-.4471,41.9922-.7393,47.406-.7025,13.01-8.2641,19.4936-14.3128,22.9857v19.5567l118.2115-68.2494Z" fill="#fafafa" opacity=".5"/></g><g><path d="M268.0824,691.4748c9.3272-5.3841,14.3446-13.4459,14.9117-23.96.3072-5.6867.5954-32.1756.7406-47.4588.1828-19.04,3.7966-23.5525,6.9228-25.3557a2.4185,2.4185,0,0,1,2.32-.2c1.8584.8248,3.5246,3.92,4.46,8.2773,1.3193,6.1446,4.1643,14.0084,7.8414,15.9489a3.6456,3.6456,0,0,0,3.1636.2027c6.7237-2.7549,6.7237-8.9885,6.7237-20.3044l-.007-2.7125c-.047-11.1013-.0938-22.58,6.8336-26.4116,1.6148-.8951,2.4466-.669,2.9412-.4312,3.3114,1.6311,5.369,12.5625,6.7892,21.9048.8413,5.53,4.0846,23.8091,10.4848,26.8863a4.49,4.49,0,0,0,4.3426-.2145,10.56,10.56,0,0,0,4.0919-4.748,10.8616,10.8616,0,0,1,3.6347-4.4364,3.3812,3.3812,0,0,1,3.0184-.6314c4.0614,1.2349,8.1088,11.1141,11.0615,18.3287,2.4888,6.0755,5.65,9.8052,9.3953,11.0836a10.1954,10.1954,0,0,0,8.542-1.1308l-1.2-2.0787a7.9852,7.9852,0,0,1-6.5665.9386c-3.0606-1.0451-5.7345-4.3167-7.9492-9.722-4.2114-10.2834-7.811-18.2644-12.5846-19.7162a5.7889,5.7889,0,0,0-5.0575.9364,13.1642,13.1642,0,0,0-4.4058,5.2893,8.4031,8.4031,0,0,1-3.18,3.8082,2.0866,2.0866,0,0,1-2.1022.13c-3.4424-1.6559-7.1217-11.7354-9.1536-25.0841-2.3319-15.3312-4.6028-21.9752-8.1016-23.6965-1.53-.7545-3.2153-.5928-5.1629.484-8.17,4.5195-8.12,16.7211-8.0709,28.522l.007,2.7019c0,10.9444,0,15.9395-5.2332,18.0827a1.23,1.23,0,0,1-1.1342-.1032c-2.2757-1.201-5.1184-7.361-6.6135-14.3307-1.13-5.2576-3.2013-8.7975-5.8353-9.9669a4.7949,4.7949,0,0,0-4.4926.3153c-3.9065,2.2544-7.9281,7.2742-8.1227,27.4109-.1452,15.2635-.4334,41.7125-.7358,47.3532-.53,9.7879-5.0152,16.9882-13.7166,22.01Z" fill="#4949bf"/></g><path d="M385.6944,607.4642c-.0456,4.2142-8.3277,26.4689-27.0875,27.6079s-25.6782-19.7578-34.768-14.7584-7.386,20.0012-15.8505,25.1122-17.5541-23.53-27.78-18.981-6.6628,35.8679-12.7256,41.59v41.958l118.2115-68.2494Z" fill="url(#d)" opacity=".4"/><g><path d="M268.3049,668.9079c2.9085-2.7442,3.7357-9.8146,4.6942-18.0007,1.1552-9.8614,2.4653-21.0388,7.696-23.3661,4.387-1.9531,9.0016,4.017,13.4661,9.7925,4.6212,5.9795,9.4092,12.164,14.4478,9.12,4.5-2.7173,6.3181-7.879,8.0757-12.87,1.79-5.0808,3.48-9.88,7.7337-12.2192,3.3112-1.82,6.2829.5145,11.2441,4.8,5.5447,4.7878,12.4347,10.7673,23.0181,10.1052,18.945-1.1507,28.1575-23.43,28.2136-28.7925l-2.4-.0256c-.0375,3.5444-7.668,25.3122-25.9593,26.4231-9.5662.5613-16.0859-5.0234-21.3049-9.5276-4.8487-4.1856-9.032-7.798-13.97-5.0844-5.0548,2.7795-6.979,8.2411-8.84,13.5247-1.6919,4.8029-3.29,9.3389-7.0539,11.6108-3.192,1.9311-7.1408-3.1461-11.3075-8.5327-4.8-6.201-10.2436-13.2256-16.3391-10.5177-6.4822,2.8848-7.8134,14.27-9.1047,25.2806-.8272,7.0741-1.6849,14.3893-3.9558,16.5337Z" fill="#4aa566"/></g><g><path d="M393.17,512.7058a8.5924,8.5924,0,0,0-3.8869,6.7336c0,2.4794,1.74,3.4844,3.8876,2.2447a8.5912,8.5912,0,0,0,3.8872-6.7335C397.057,512.4714,395.3164,511.4666,393.17,512.7058Z" fill="#ea0048"/></g><g><path d="M386.3111,520.297a6.1392,6.1392,0,0,1-2.863,4.7557L356.9345,540.36c-1.5817.9133-2.8636.2647-2.8631-1.4488a6.1429,6.1429,0,0,1,2.8646-4.7561l26.51-15.3067C385.0279,517.9354,386.3106,518.5838,386.3111,520.297Z" fill="#5b003f"/></g><g><path d="M393.17,531.32a8.5918,8.5918,0,0,0-3.8869,6.7335c0,2.4792,1.74,3.4842,3.8876,2.2445a8.5911,8.5911,0,0,0,3.8872-6.7335C397.057,531.0852,395.3164,530.08,393.17,531.32Z" fill="#5b003f"/></g><g><path d="M386.3111,538.9108a6.1385,6.1385,0,0,1-2.863,4.7554l-26.5136,15.3077c-1.5817.9131-2.8636.2644-2.8631-1.449a6.1437,6.1437,0,0,1,2.8646-4.7561l26.51-15.3065C385.0279,536.549,386.3106,537.1976,386.3111,538.9108Z" fill="#ea0048"/></g></g></g><g data-name="Statistic 1"><g><g><g><path d="M54.866,531.3067l-1.87-1.0794a11.9617,11.9617,0,0,1-5.4111-9.3727l.0009-192.6594a11.961,11.961,0,0,1,5.4114-9.3729l166.8486-96.33a11.96,11.96,0,0,1,10.8224,0l1.8684,1.0785a11.9609,11.9609,0,0,1,5.4114,9.3727l-.0008,192.6605a11.9626,11.9626,0,0,1-5.4114,9.3729L65.6884,531.307A11.96,11.96,0,0,1,54.866,531.3067Z" fill="#00dfbf"/></g><g><path d="M54.866,531.3067l-1.87-1.0794a11.9617,11.9617,0,0,1-5.4111-9.3727l.0009-192.6594a11.961,11.961,0,0,1,5.4114-9.3729l166.8486-96.33a11.96,11.96,0,0,1,10.8224,0l1.8684,1.0785a11.9609,11.9609,0,0,1,5.4114,9.3727l-.0008,192.6605a11.9626,11.9626,0,0,1-5.4114,9.3729L65.6884,531.307A11.96,11.96,0,0,1,54.866,531.3067Z" fill="#77c68d"/></g></g><g><g><path d="M47.5856,424.5247V328.1952a11.061,11.061,0,0,1,1.585-5.3334L72.9685,336.6V527.1043l-7.28,4.2027a11.9627,11.9627,0,0,1-10.82.0008l-1.8763-1.0831a11.96,11.96,0,0,1-5.4066-9.37Z" fill="#00dfbf"/></g><g><path d="M47.5856,424.5247V328.1952a11.061,11.061,0,0,1,1.585-5.3334L72.9685,336.6V527.1043l-7.28,4.2027a11.9627,11.9627,0,0,1-10.82.0008l-1.8763-1.0831a11.96,11.96,0,0,1-5.4066-9.37Z" fill="#4aa566"/></g></g><g><g><path d="M232.537,229.8194l-166.8486,96.33a11.9608,11.9608,0,0,0-5.4114,9.3727v192.66c0,3.4511,2.4228,4.85,5.4114,3.1244l166.8478-96.33a11.9626,11.9626,0,0,0,5.4114-9.3729l.0008-192.66C237.9484,229.4927,235.5257,228.0939,232.537,229.8194Z" fill="#00dfbf"/></g><g><path d="M232.537,229.8194l-166.8486,96.33a11.9608,11.9608,0,0,0-5.4114,9.3727v192.66c0,3.4511,2.4228,4.85,5.4114,3.1244l166.8478-96.33a11.9626,11.9626,0,0,0,5.4114-9.3729l.0008-192.66C237.9484,229.4927,235.5257,228.0939,232.537,229.8194Z" fill="#f2f2f2"/></g></g><g fill="#75004c"><path d="M74.9263,511.9575A2.8771,2.8771,0,0,1,73.47,511.58a3.7362,3.7362,0,0,1-1.609-3.4423V341.6382a10.878,10.878,0,0,1,4.9161-8.5142L220.97,249.874a3.3163,3.3163,0,0,1,5.394,3.1145l-.0006,166.4994a10.8809,10.8809,0,0,1-4.9161,8.5148L77.2557,511.2521A4.7172,4.7172,0,0,1,74.9263,511.9575ZM221.4486,250.7028l-144.1929,83.25a9.82,9.82,0,0,0-4.4375,7.6854V508.1376a2.3873,2.3873,0,0,0,3.9589,2.2857l144.1916-83.2494a9.8215,9.8215,0,0,0,4.4375-7.686l.0007-166.4994a2.387,2.387,0,0,0-3.9583-2.2857Z" fill="inherit"/><path d="M74.9263,511.9575A2.8771,2.8771,0,0,1,73.47,511.58a3.7362,3.7362,0,0,1-1.609-3.4423V341.6382a10.878,10.878,0,0,1,4.9161-8.5142L220.97,249.874a3.3163,3.3163,0,0,1,5.394,3.1145l-.0006,166.4994a10.8809,10.8809,0,0,1-4.9161,8.5148L77.2557,511.2521A4.7172,4.7172,0,0,1,74.9263,511.9575ZM221.4486,250.7028l-144.1929,83.25a9.82,9.82,0,0,0-4.4375,7.6854V508.1376a2.3873,2.3873,0,0,0,3.9589,2.2857l144.1916-83.2494a9.8215,9.8215,0,0,0,4.4375-7.686l.0007-166.4994a2.387,2.387,0,0,0-3.9583-2.2857Z" fill="inherit"/></g></g><g><path d="M86.9144,417.8134V483.919c0,2.4163,1.6962,3.3955,3.7887,2.1876L207.5217,418.661a8.3755,8.3755,0,0,0,3.7888-6.5624l0-66.1057Z" fill="#4949bf" opacity=".41"/></g><g opacity=".17"><path d="M138.8624,415.2151a3.8291,3.8291,0,0,1-1.8738-7.17l57.4532-32.1561a3.8286,3.8286,0,0,1,3.74,6.6815l-57.4532,32.1561A3.81,3.81,0,0,1,138.8624,415.2151Z" fill="#75004c"/></g><g opacity=".17"><path d="M143.5884,433.5982a3.8291,3.8291,0,0,1-1.8738-7.17l48.69-27.2518a3.8285,3.8285,0,1,1,3.74,6.6814l-48.69,27.2519A3.8089,3.8089,0,0,1,143.5884,433.5982Z" fill="#75004c"/></g><g><path d="M113.63,416.9659c-4.808,2.7759-9.0554,7.93-12.0811,14.6581C96.146,443.64,97.1748,456.0977,103.847,459.45a8.0727,8.0727,0,0,0,3.9782.8983,12.609,12.609,0,0,0,5.805-1.9275,23.7019,23.7019,0,0,0,5.345-4.3437q.7143-.7611,1.3945-1.5913c5.21-6.3557,8.8059-15.54,8.8059-23.7674C129.1756,417.2707,122.2157,412.009,113.63,416.9659Zm-9.692,26.3229c0-7.1369,4.3393-15.4279,9.692-18.5183s9.6918.19,9.6918,7.327c0,.0217-.0011.0437-.0012.0654l-.001.0005a24.7548,24.7548,0,0,1-5.9278,15.2706l-.0149.0164q-.21.2384-.4238.4668l-.0334.0344c-.1369.1449-.2749.2874-.4146.4259-.036.0356-.0728.069-.109.1041-.1158.1128-.2317.2254-.3492.3336-.0548.05-.1108.0975-.166.1469-.1.09-.2.18-.3013.2664-.0758.0644-.153.1246-.2294.1871-.0822.0671-.1638.1362-.2467.2009-.0882.0689-.1777.1331-.2667.1992-.0726.0539-.1445.11-.2175.1624-.1071.0763-.2155.1474-.3236.22-.056.0374-.1114.0775-.1677.1137q-.2475.16-.498.3044a10.0572,10.0572,0,0,1-1.2784.6265,7.0138,7.0138,0,0,1-2.3946.5325,5.2514,5.2514,0,0,1-1.2687-.115,4.82,4.82,0,0,1-1.1568-.4043h0C105.34,450.1516,103.9382,447.3439,103.9382,443.2888Z" fill="#75004c" opacity=".17"/></g><g><path d="M205.86 293.997L202.255 289.067 197.145 292.462 197.923 293.634 201.108 291.519 200.081 325.702 185.408 307.079 159.995 339.904 149.505 331.441 131.502 361.813 118.087 353.736 92.365 384.806 93.45 385.703 118.398 355.566 131.99 363.748 149.886 333.557 160.23 341.901 185.418 309.365 201.371 329.614 202.508 291.797 204.724 294.828 205.86 293.997z" fill="#ea0048"/></g></g></g></svg>