<?xml version="1.0" encoding="UTF-8"?><svg xmlns="http://www.w3.org/2000/svg" xmlns:xlink="http://www.w3.org/1999/xlink" height="222.0" preserveAspectRatio="xMidYMid meet" version="1.0" viewBox="0.0 0.0 222.0 222.0" width="222.0" zoomAndPan="magnify"><g id="change1_1"><circle cx="111" cy="111" fill="#FFF" r="111"/></g><g><g id="change2_1"><path d="M166.406,83.164c-1.333-4.979-5.246-8.892-10.225-10.224C147.166,70.521,111,70.521,111,70.521 s-36.166,0-45.181,2.418c-4.979,1.333-8.892,5.245-10.224,10.224C53.176,92.179,53.176,111,53.176,111s0,18.821,2.418,27.836 c1.333,4.979,5.245,8.892,10.224,10.224c9.015,2.418,45.181,2.418,45.181,2.418s36.167,0,45.182-2.418 c4.979-1.333,8.892-5.245,10.225-10.224c2.418-9.015,2.418-27.836,2.418-27.836S168.814,92.179,166.406,83.164z" fill="#F00"/></g><g id="change1_2"><path d="M99.424,128.347l30.045-17.345L99.424,93.656V128.347z" fill="#FFF"/></g></g></svg>