<?xml version="1.0" encoding="UTF-8"?><svg xmlns="http://www.w3.org/2000/svg" xmlns:xlink="http://www.w3.org/1999/xlink" height="255.8" preserveAspectRatio="xMidYMid meet" version="1.0" viewBox="110.1 84.3 204.3 255.8" width="204.3" zoomAndPan="magnify"><g id="change1_1"><path d="M255.5,189.08c7.6,16.63,13.56,34.02,17.76,51.82c0.84,3.56,1.6,7.34,0.44,10.81 c-0.68,2.03-1.97,3.79-3.24,5.51c-8.43,11.41-16.87,22.83-25.3,34.24c-2.32,3.14-4.66,6.31-7.61,8.87 c-0.99,0.86-2.05,1.66-3.06,2.5c-2.54,2.11-6.29,1.75-8.4-0.79c-5.99-7.24-7.87-17.94-4.05-26.61c2.29-5.2,6.28-9.5,8.77-14.62 c2.51-5.16,1.33-12.99-2.23-17.49c-3.19-4.04-5.35-9.13-4.14-14.04c0.62-2.53,2.19-4.7,3.72-6.8c7.11-9.72,14.22-19.45,21.33-29.17 C250.99,191.27,253.05,188.44,255.5,189.08z" fill="#d5604a"/></g><path d="M265.37,213.97c1.57,5.24,6.64,21.61,7.89,26.93c0.84,3.56,1.6,7.34,0.44,10.81 c-0.68,2.03-1.97,3.79-3.24,5.51c-8.43,11.41-16.87,22.83-25.3,34.24c-1.36,1.85-2.74,3.7-4.23,5.44" fill="none" stroke="#144778" stroke-linecap="round" stroke-linejoin="round" stroke-miterlimit="10" stroke-width="5"/><g id="change1_2"><path d="M221.97,159.62c-17.48-5.39-35.48-9.06-53.67-10.94c-3.64-0.38-7.49-0.64-10.77,0.95 c-1.93,0.94-3.5,2.44-5.05,3.93c-10.23,9.83-20.47,19.67-30.7,29.5c-2.81,2.7-5.65,5.44-7.81,8.69c-0.72,1.09-1.38,2.24-2.08,3.35 c-1.77,2.79-0.93,6.47,1.87,8.23c7.96,5.01,18.81,5.49,26.91,0.59c4.87-2.94,8.61-7.45,13.37-10.57 c4.79-3.15,12.71-2.99,17.64-0.04c4.41,2.65,9.74,4.13,14.45,2.3c2.42-0.94,4.37-2.78,6.26-4.57c8.73-8.3,17.45-16.61,26.18-24.91 C220.39,164.38,222.93,161.97,221.97,159.62z" fill="#d5604a"/></g><path d="M190.03,151.79c-7.2-1.32-14.45-2.36-21.73-3.11c-3.64-0.38-7.49-0.64-10.77,0.95 c-1.93,0.94-3.5,2.44-5.05,3.93c-10.23,9.83-20.47,19.67-30.7,29.5" fill="none" stroke="#144778" stroke-linecap="round" stroke-linejoin="round" stroke-miterlimit="10" stroke-width="5"/><g id="change2_1"><path d="M166.3,224.54c-4.56-1.59-9.72,0.62-13.09,4.09c-3.37,3.46-5.36,7.99-7.53,12.3 c-6.01,11.94-13.87,22.95-23.22,32.51c6.29-0.58,12.47-2.4,18.08-5.31c-1.47,5.18-4.82,9.59-7.33,14.36 c-9.17,17.36-6.88,38.35-3.44,57.67c2.56-16.49,12.97-31.59,27.47-39.85c0.77-0.44,1.59-0.87,2.48-0.92 c3.16-0.16,4.37,4.02,4.53,7.19c17.24-6.46,30.71-22.11,34.55-40.11" fill="#f9b347"/></g><g id="change1_3"><path d="M151.28,218.52c-0.32,1.74-0.51,3.55-0.1,5.27c0.53,2.18,1.97,4.01,3.4,5.74 c9.87,11.88,21.19,22.56,33.63,31.72c4.69,3.46,9.93,6.82,15.76,6.86c8.68,0.05,15.57-7.17,20.43-14.36 c0.52-0.77,1.04-1.58,1.16-2.5c0.15-1.16-0.36-2.3-0.87-3.36c-6.13-12.94-12.89-26.59-25.1-34.07c-4.47-2.74-9.51-4.53-13.75-7.61 c-2.32-1.69-4.37-3.74-6.75-5.34c-4.59-3.08-13.2-5.89-17.95-1.92C156.08,203.2,152.45,212.21,151.28,218.52z" fill="#d5604a"/></g><g id="change3_1"><path d="M250.15,227.48c4.4-6.01,8.81-12.02,12.87-18.27c5.75-8.85,10.78-18.15,15.8-27.43 c7.53-13.91,15.05-27.82,22.58-41.73c0.33-0.61,0.59-1.19,0.8-1.76c0.92-1.08,1.44-2.48,1.91-3.84c4.26-12.08,8.55-24.28,10.01-37 c0.13-1.15,0.23-2.36-0.18-3.44c-0.51-1.33-1.7-2.26-2.83-3.11c-3.27-2.47-6.71-5.01-10.76-5.68c-5.47-0.9-10.82,1.8-15.71,4.42 c-7.8,4.18-11.89,7.33-19.8,11.29c-2.27,1.13-31.22,17.41-41.89,27.69c-9.98,9.62-19.96,19.24-29.94,28.86 c-12.28,11.83-23.78,21.34-29.68,37.34c-1.46,3.95-2.44,8.47-0.61,12.26c1.15,2.39,3.27,4.15,5.34,5.81 c13.74,11.06,26.9,24.31,41.71,33.9c3.45,2.23,7.1,4.48,11.2,4.81c6.41,0.5,12.17-3.81,16.62-8.45 C242.23,238.3,246.2,232.88,250.15,227.48z" fill="#cadfdf"/></g><g id="change1_4"><path d="M265.15,111.78c3.83,3.85,8.62,6.8,12.79,10.29c7.6,6.35,14.77,13.62,24.41,16.03 c0.82-1.05,1.33-2.37,1.78-3.65c4.26-12.08,8.55-24.28,10.01-37c0.13-1.15,0.23-2.36-0.18-3.44c-0.51-1.33-1.7-2.26-2.83-3.11 c-3.27-2.47-6.71-5.01-10.76-5.68c-5.47-0.9-10.82,1.8-15.71,4.42c-7.8,4.18-11.89,7.33-19.8,11.29c-0.55,0.27-2.65,1.43-5.67,3.17 C260.98,106.81,262.85,109.48,265.15,111.78z" fill="#d5604a"/></g><g id="change4_1"><path d="M240.05,135.16c-0.98,1.64-1.76,3.42-2.08,5.3c-0.62,3.68,0.58,7.4,1.97,10.86c1.08,2.68,2.3,5.33,4.07,7.62 c4.57,5.92,12.81,8.73,20.05,6.83c16.17-4.24,16.79-23.01,9.25-35.03C265.34,118.04,246.76,123.92,240.05,135.16z" fill="#fff"/></g><path d="M268.9,126.11c-9.06-6.12-23.18-0.44-28.85,9.05c-0.98,1.64-1.76,3.42-2.08,5.3 c-0.62,3.68,0.58,7.4,1.97,10.86c1.08,2.68,2.3,5.33,4.07,7.62c3.07,3.98,7.8,6.55,12.76,7.24" fill="none" stroke="#144778" stroke-linecap="round" stroke-linejoin="round" stroke-miterlimit="10" stroke-width="5"/><path d="M162.3,246.08c-2.72,5.11-8.3,9.18-11.99,13.65" fill="none" stroke="#144778" stroke-linecap="round" stroke-linejoin="round" stroke-miterlimit="10" stroke-width="5"/><path d="M168.83,256.68c-5.08,9.78-10.83,19.22-17.18,28.22" fill="none" stroke="#144778" stroke-linecap="round" stroke-linejoin="round" stroke-miterlimit="10" stroke-width="5"/><path d="M179.3,261.02c-2.66,5.26-4.2,14.62-6.86,19.88" fill="none" stroke="#144778" stroke-linecap="round" stroke-linejoin="round" stroke-miterlimit="10" stroke-width="5"/></svg>