<?xml version="1.0" encoding="UTF-8"?><svg xmlns="http://www.w3.org/2000/svg" xmlns:xlink="http://www.w3.org/1999/xlink" height="500.0" preserveAspectRatio="xMidYMid meet" version="1.0" viewBox="0.0 0.0 500.0 500.0" width="500.0" zoomAndPan="magnify"><g id="change1_1"><path clip-rule="evenodd" d="M500,43.5973244C500,19.5187492,480.481842,0,456.401825,0 H43.5889091C19.5176258,0,0,19.5187492,0,43.5973244v412.8053589C0,480.4812622,19.5176258,500,43.5889091,500H456.401825 C480.481842,500,500,480.4812622,500,456.4026794V43.5973244z" fill="#35C42C" fill-rule="evenodd"/></g><g><g id="change2_2"><path clip-rule="evenodd" d="M102.4551392,400.8901672l14.6070175-51.157135 C96.1696091,321.93927,83.7854691,287.4035645,83.7854691,250c0-91.7330475,74.4825058-166.2089233,166.2145386-166.2089233 S416.2052612,158.2669525,416.2052612,250S341.7320251,416.2089233,250,416.2089233 c-35.7322693,0-66.776825-14.6231995-95.9641571-30.5205383L102.4551392,400.8901672z M87.6159668,360.5071411 l-26.2680054,81.4955444l82.4999084-26.7330322C174.4640961,434.9830322,210.901535,446.4285583,250,446.4285583 c108.4104309,0,196.4285583-88.0169678,196.4285583-196.4285583S358.4104309,53.5714302,250,53.5714302 C141.589035,53.5714302,53.5714302,141.5883789,53.5714302,250 C53.5714302,290.9598083,66.1337738,329.0080261,87.6159668,360.5071411z" fill="#FFF" fill-rule="evenodd"/></g><g id="change2_1"><path clip-rule="evenodd" d="M177.026474,165.125885 c-17.2320709,17.2357178-20.5710297,43.9732361-8.106781,64.9205627 c9.0713501,15.0481873,23.2767487,34.002655,45.6515808,56.377655 c21.8304138,21.8303528,40.2766571,35.7562561,55.0090179,44.6375122 c20.9465027,12.5874939,47.7769165,9.2937622,65.0536804-7.9875183c1.1068115-1.0428467,2.1694641-2.0999756,3.196167-3.1285706 c7.0266724-7.0267639,7.0266724-18.4196167,0-25.4464111c-4.9285889-4.9223328-10.5443726-10.5446472-15.4729614-15.46698 c-3.3662109-3.374115-7.9465637-5.2696228-12.7236633-5.2696228c-4.7678223,0-9.348175,1.8955078-12.7230835,5.2696228 c-2.4016418,2.405365-4.1781921,4.184845-4.1781921,4.184845s-21.5089111,1.7294312-45.6875458-22.4491272 s-30.2946777-53.53302-30.2946777-53.53302s1.7765503-1.7794647,4.1781769-4.1848297 c3.3754578-3.3740997,5.2768097-7.950882,5.2768097-12.7232056c0-4.7714386-1.9013519-9.3482208-5.2768097-12.7232056 c-4.9193268-4.9214478-10.5443726-10.5446472-15.4642334-15.4669647c-7.0266724-7.0268097-18.4195404-7.0268097-25.4462128,0 C179.0444489,163.1107025,178.0444489,164.110733,177.026474,165.125885z" fill="#FFF" fill-rule="evenodd"/></g></g></svg>