<?xml version="1.0" encoding="UTF-8"?><svg xmlns="http://www.w3.org/2000/svg" xmlns:xlink="http://www.w3.org/1999/xlink" height="269.0" preserveAspectRatio="xMidYMid meet" version="1.0" viewBox="86.5 115.5 350.8 269.0" width="350.8" zoomAndPan="magnify"><g><g id="change1_1"><path d="M429.9,146.5c-2.6-7-6.9-13.3-13.6-18.1c-17.8-12.9-43.3-9.4-63.8-7.8c-3.9,0.3-7.8,0.6-11.8,0.8 c-21.6,1.2-43.2,2.3-64.9,3.5c-25.5,1.4-51,2.7-76.5,4.1c-10.1,0.5-20.2,1.1-30.3,1.6c-13.8,0.7-28.5-0.2-41.7,4.6 c-23.1,8.5-31.7,31.3-26.6,54.1c6.7,29.8,13.3,59.6,19.6,89.5c3,14.4,4.4,31,14.8,42.4c15.9,17.3,43.1,14.3,64.2,12.7 c3.6-0.3,7.3-0.4,10.7,0.8c3.1,1,5.8,3.1,8.3,5.1c8.3,6.4,16.5,12.8,24.8,19.2c13.8,10.7,28.5,19.3,45.1,9.4 c13.3-8,21.8-21.6,32.3-32.6c0.6-0.7,1.3-1.4,2.2-1.7c1-0.4,2-0.3,3.1-0.2c23.6,2.3,54.6,12.1,75.7-3.4 c9.1-6.7,14.8-17.2,17.6-28.2c3.6-13.7,3.4-28.4,4.8-42.4c1.6-15.5,3.1-31.1,4.6-46.6C430.8,193.5,437.3,166.8,429.9,146.5z" fill="#fee031"/></g></g><g id="change2_1"><path d="M264.6,384.5c-11.4,0-22-6.6-31.9-14.3L207.8,351c-2.4-1.8-4.8-3.8-7.5-4.7c-3-1-6.4-0.9-9.6-0.6 c-1,0.1-2.1,0.2-3.1,0.2c-6.4,0.5-13.3,1-20.3,1c-15.8,0-31.9-2.7-43-14.8c-9.2-9.9-11.6-23.2-14-36c-0.5-2.6-1-5.1-1.5-7.6 c-6-28.6-12.6-58.7-19.6-89.5c-2.7-12.1-1.7-24.2,2.9-34.2c5-10.8,13.7-18.8,25.4-23.1c10.6-3.9,22-4.2,33-4.4 c3.2-0.1,6.4-0.2,9.5-0.3l171.7-9.2c3.7-0.2,7.4-0.5,11-0.8l0.7-0.1c1.7-0.1,3.4-0.3,5.2-0.4c19.3-1.7,43.4-3.7,60.5,8.7 c6.7,4.9,11.6,11.4,14.5,19.4c6.1,16.6,3.3,36.8,0.9,54.6c-0.7,4.7-1.3,9.2-1.7,13.3l-1.6,15.8c-1,10.3-2,20.5-3.1,30.8 c-0.4,4.1-0.7,8.4-1,12.5c-0.7,10.1-1.4,20.4-3.9,30.4c-2.4,9.1-7.5,21.6-18.7,29.7c-9.5,6.9-20.7,9-32.3,9c-9.9,0-20.1-1.6-29.7-3 c-5.5-0.9-10.8-1.7-15.7-2.1c-0.6-0.1-1.4-0.1-1.8,0c-0.3,0.1-0.8,0.7-1.2,1.1c-3.2,3.3-6.2,6.9-9.2,10.5 c-6.9,8.3-14.1,16.8-23.7,22.6C275.2,383,269.8,384.5,264.6,384.5z M194.5,340c2.5,0,5.1,0.2,7.5,1.1c3.6,1.2,6.5,3.5,9.2,5.5 l24.8,19.2c6,4.7,13.2,9.7,20.6,12c7.5,2.3,14.5,1.3,21.4-2.8c8.8-5.3,15.7-13.5,22.4-21.4c3-3.6,6.1-7.3,9.4-10.7 c0.7-0.8,1.7-1.8,3.2-2.4c1.6-0.6,3.2-0.5,4.4-0.4c5.1,0.5,10.4,1.3,16,2.2c19.7,3,42.1,6.5,57.9-5c9.8-7.2,14.5-18.5,16.6-26.6 c2.5-9.4,3.1-19.5,3.8-29.3c0.3-4.2,0.6-8.5,1-12.7c1-10.3,2-20.5,3.1-30.8l1.6-15.8c0.4-4.3,1-8.8,1.7-13.6 c2.4-17.2,5.1-36.7-0.6-51.9c-2.6-7.1-6.7-12.6-12.6-16.9c-15.5-11.2-37.4-9.3-56.8-7.7c-1.8,0.2-3.5,0.3-5.2,0.4l-0.7,0.1 c-3.6,0.3-7.4,0.6-11.1,0.8l-171.7,9.2c-3.2,0.2-6.5,0.3-9.7,0.3c-10.6,0.3-21.5,0.5-31.2,4.1c-10.3,3.8-18,10.8-22.3,20.2 c-4.1,8.9-5,19.8-2.5,30.7c6.9,30.8,13.5,60.9,19.6,89.5c0.5,2.5,1,5.2,1.5,7.8c2.2,12.1,4.6,24.5,12.6,33.3 c14.3,15.5,39,13.6,58.9,12.1c1.1-0.1,2.1-0.2,3.2-0.2C191.6,340.1,193.1,340,194.5,340z" fill="#333"/></g><g fill="#fff" id="change3_1"><path d="M133.5,231.1c-0.2-5.7,1.2-9.5,3.5-11.9c2.4-2.4,5.3-3.2,8.2-3.3c2.8-0.1,5.8,0.4,8.4,2.6 c2.5,2.1,4.2,5.8,4.5,11.5l0,1c0.1,1.5-1.1,2.7-2.5,2.8l-2.2,0.1c-1.5,0.1-2.7-1.1-2.8-2.6l0-1c-0.2-5-2-7.1-5-7 c-3.1,0.1-4.7,2.4-4.5,7.4L142,252c0.2,5,1.9,7.2,5.1,7.1c1.4-0.1,2.7-0.7,3.4-1.5c0.8-1.2,1.1-3.3,1-6l0-1 c-0.1-1.5,1.1-2.7,2.6-2.8l2.2-0.1c1.4-0.1,2.7,1.1,2.7,2.6l0,1c0.3,5.9-1.2,9.4-3.4,11.9c-2.4,2.5-5.5,3.2-8.2,3.4 c-2.8,0.1-5.9-0.3-8.5-2.6c-2.4-2.2-4.2-5.6-4.5-11.5L133.5,231.1z"/><path d="M163.2,229.8c-0.4-9.4,3.5-14.8,11.7-15.1c8.2-0.4,12.5,4.6,12.9,14.1l0.9,21.2c0.3,5.9-1.2,9.4-3.4,11.9 c-2.4,2.5-5.5,3.2-8.3,3.4c-2.7,0.1-5.9-0.3-8.4-2.6c-2.4-2.2-4.2-5.6-4.5-11.5L163.2,229.8z M171.6,250.7c0.2,4.9,1.9,7.2,5.1,7.1 c3.1-0.1,4.7-2.4,4.5-7.5l-0.9-21.2c-0.2-5-1.9-7.1-5.1-7c-3.3,0.1-4.7,2.5-4.5,7.4L171.6,250.7z"/><path d="M215.5,263.5c-0.9,0-2.2-0.7-2.5-1.5l-11.5-25.3l1.1,24.7c0.1,1.5-1.2,2.8-2.6,2.8l-2.2,0.1 c-1.4,0.1-2.7-1.1-2.8-2.6l-2-45.1c-0.1-1.5,1.2-2.8,2.6-2.8l1.8-0.1c1,0,2.2,0.7,2.5,1.5l11.5,25.3l-1.1-24.7 c-0.1-1.5,1.1-2.7,2.6-2.8l2.1-0.1c1.5-0.1,2.7,1.1,2.8,2.6l2,45.1c0.1,1.5-1.1,2.7-2.6,2.8L215.5,263.5z"/><path d="M223.5,215.2c-0.1-1.5,1.1-2.7,2.6-2.8l19.6-0.9c1.5-0.1,2.7,1.1,2.8,2.6l0.1,2.1c0.1,1.5-1.1,2.7-2.6,2.8 l-6.1,0.3l1.8,40.3c0.1,1.5-1.1,2.7-2.6,2.8l-2,0.1c-1.5,0.1-2.7-1.1-2.8-2.6l-1.8-40.3l-6.1,0.3c-1.5,0.1-2.7-1.1-2.8-2.6 L223.5,215.2z"/><path d="M264.9,247.5l-7.6,0.3l-2.1,11.8c-0.3,1.1-1.4,2.2-2.5,2.2l-2.2,0.1c-1.8,0.1-3.1-1.4-2.8-3.1l2.9-16l5.5-29.6 c0.3-1.1,1.4-2.2,2.5-2.2l1.6-0.1c1.1,0,2.4,0.9,2.7,2l12.3,44.6c0.4,1.7-0.7,3.3-2.5,3.4l-2.2,0.1c-1.1,0-2.4-0.9-2.7-2 L264.9,247.5z M258.6,240.4l4.2-0.2c-1-3.6-0.9-5.6-2.6-11.9L258.6,240.4z"/><path d="M275,224.9c-0.2-5.7,1.2-9.5,3.5-11.9c2.4-2.4,5.3-3.2,8.2-3.3c2.8-0.1,5.8,0.4,8.4,2.6 c2.5,2.1,4.2,5.8,4.5,11.5l0,1c0.1,1.5-1.1,2.7-2.5,2.8l-2.2,0.1c-1.5,0.1-2.7-1.1-2.8-2.6l0-1c-0.2-5-2-7.1-5-7 c-3.1,0.1-4.7,2.4-4.5,7.4l0.9,21.2c0.2,5,1.9,7.2,5.1,7.1c1.4-0.1,2.7-0.7,3.4-1.5c0.8-1.2,1.1-3.3,1-6l0-1 c-0.1-1.5,1.1-2.7,2.6-2.8l2.2-0.1c1.4-0.1,2.7,1.1,2.7,2.6l0,1c0.3,5.9-1.2,9.4-3.4,11.9c-2.4,2.5-5.5,3.2-8.2,3.4 c-2.8,0.1-5.9-0.3-8.5-2.6c-2.4-2.2-4.2-5.6-4.5-11.5L275,224.9z"/><path d="M301.5,211.8c-0.1-1.5,1.1-2.7,2.6-2.8l19.6-0.9c1.5-0.1,2.7,1.1,2.8,2.6l0.1,2.1c0.1,1.5-1.1,2.7-2.6,2.8 l-6.1,0.3l1.8,40.3c0.1,1.5-1.1,2.7-2.6,2.8l-2,0.1c-1.5,0.1-2.7-1.1-2.8-2.6l-1.8-40.3l-6.1,0.3c-1.5,0.1-2.7-1.1-2.8-2.6 L301.5,211.8z"/><path d="M347,209.8c-0.1-1.5,1.1-2.7,2.5-2.8l2.1-0.1c1.5-0.1,2.7,1.1,2.8,2.6l1.5,34.1c0.2,4,1.5,6.2,5.1,6.1 c3.8-0.2,4.8-2.9,4.6-6.5l-1.5-34.1c-0.1-1.5,1.1-2.7,2.5-2.8l2.1-0.1c1.5-0.1,2.7,1.1,2.8,2.6l1.5,34.1c0.4,8.4-3,13.9-11.7,14.2 c-9,0.4-12.5-5.2-12.9-13.2L347,209.8z"/><path d="M377.8,240.7c-0.1-1.5,1.1-2.7,2.6-2.8l2.1-0.1c1.4-0.1,2.7,1.1,2.8,2.6l0,1c0.2,3.6,0.9,5.3,2,6.1 c0.9,0.8,2.1,0.9,3.2,0.8c3.1-0.1,4.8-1.6,4.6-5.5c-0.2-3.5-3.7-6.1-7.5-8.8l0,0.1c-5.1-3.7-10.5-7.5-10.8-14.9 c-0.4-8.5,3.8-13.5,11.8-13.9c8.1-0.4,12.6,4.6,13,14.1l0,1c0.1,1.5-1.1,2.7-2.6,2.8l-2.1,0.1c-1.5,0.1-2.7-1.1-2.8-2.6l0-1 c-0.2-4.9-1.9-7.1-5.2-7c-3.1,0.1-4.8,1.9-4.6,5.8c0.2,3.8,4,6.6,7.8,9.3l-0.1,0c5.1,3.6,10.3,7.2,10.6,14.5 c0.4,8.4-3.9,13.1-11.8,13.4c-8.2,0.4-12.6-4.3-13-14.1L377.8,240.7z"/></g><g fill="#333" id="change2_2"><path d="M129.6,235.3c-0.2-5.7,1.2-9.5,3.5-11.9c2.4-2.4,5.3-3.2,8.2-3.3c2.8-0.1,5.8,0.4,8.4,2.6 c2.5,2.1,4.2,5.8,4.5,11.5l0,1c0.1,1.5-1.1,2.7-2.5,2.8l-2.2,0.1c-1.5,0.1-2.7-1.1-2.8-2.6l0-1c-0.2-5-2-7.1-5-7 c-3.1,0.1-4.7,2.4-4.5,7.4l0.9,21.2c0.2,5,1.9,7.2,5.1,7.1c1.4-0.1,2.7-0.7,3.4-1.5c0.8-1.2,1.1-3.3,1-6l0-1 c-0.1-1.5,1.1-2.7,2.6-2.8l2.2-0.1c1.4-0.1,2.7,1.1,2.7,2.6l0,1c0.3,5.9-1.2,9.4-3.4,11.9c-2.4,2.5-5.5,3.2-8.2,3.4 c-2.8,0.1-5.9-0.3-8.5-2.6c-2.4-2.2-4.2-5.6-4.5-11.5L129.6,235.3z"/><path d="M159.2,234c-0.4-9.4,3.5-14.8,11.7-15.1c8.2-0.4,12.5,4.6,12.9,14.1l0.9,21.2c0.3,5.9-1.2,9.4-3.4,11.9 c-2.4,2.5-5.5,3.2-8.3,3.4c-2.7,0.1-5.9-0.3-8.4-2.6c-2.4-2.2-4.2-5.6-4.5-11.5L159.2,234z M167.6,254.9c0.2,4.9,1.9,7.2,5.1,7.1 c3.1-0.1,4.7-2.4,4.5-7.5l-0.9-21.2c-0.2-5-1.9-7.1-5.1-7c-3.3,0.1-4.7,2.5-4.5,7.4L167.6,254.9z"/><path d="M211.6,267.7c-0.9,0-2.2-0.7-2.5-1.5l-11.5-25.3l1.1,24.7c0.1,1.5-1.2,2.8-2.6,2.8l-2.2,0.1 c-1.4,0.1-2.7-1.1-2.8-2.6l-2-45.1c-0.1-1.5,1.2-2.8,2.6-2.8l1.8-0.1c1,0,2.2,0.7,2.5,1.5l11.5,25.3l-1.1-24.7 c-0.1-1.5,1.1-2.7,2.6-2.8l2.1-0.1c1.5-0.1,2.7,1.1,2.8,2.6l2,45.1c0.1,1.5-1.1,2.7-2.6,2.8L211.6,267.7z"/><path d="M219.5,219.4c-0.1-1.5,1.1-2.7,2.6-2.8l19.6-0.9c1.5-0.1,2.7,1.1,2.8,2.6l0.1,2.1c0.1,1.5-1.1,2.7-2.6,2.8 l-6.1,0.3l1.8,40.3c0.1,1.5-1.1,2.7-2.6,2.8l-2,0.1c-1.5,0.1-2.7-1.1-2.8-2.6l-1.8-40.3l-6.1,0.3c-1.5,0.1-2.7-1.1-2.8-2.6 L219.5,219.4z"/><path d="M260.9,251.7l-7.6,0.3l-2.1,11.8c-0.3,1.1-1.4,2.2-2.5,2.2l-2.2,0.1c-1.8,0.1-3.1-1.4-2.8-3.1l2.9-16l5.5-29.6 c0.3-1.1,1.4-2.2,2.5-2.2l1.6-0.1c1.1,0,2.4,0.9,2.7,2l12.3,44.6c0.4,1.7-0.7,3.3-2.5,3.4l-2.2,0.1c-1.1,0-2.4-0.9-2.7-2 L260.9,251.7z M254.7,244.5l4.2-0.2c-1-3.6-0.9-5.6-2.6-11.9L254.7,244.5z"/><path d="M271.1,229.1c-0.2-5.7,1.2-9.5,3.5-11.9c2.4-2.4,5.3-3.2,8.2-3.3c2.8-0.1,5.8,0.4,8.4,2.6 c2.5,2.1,4.2,5.8,4.5,11.5l0,1c0.1,1.5-1.1,2.7-2.5,2.8L291,232c-1.5,0.1-2.7-1.1-2.8-2.6l0-1c-0.2-5-2-7.1-5-7 c-3.1,0.1-4.7,2.4-4.5,7.4l0.9,21.2c0.2,5,1.9,7.2,5.1,7.1c1.4-0.1,2.7-0.7,3.4-1.5c0.8-1.2,1.1-3.3,1-6l0-1 c-0.1-1.5,1.1-2.7,2.6-2.8l2.2-0.1c1.4-0.1,2.7,1.1,2.7,2.6l0,1c0.3,5.9-1.2,9.4-3.4,11.9c-2.4,2.5-5.5,3.2-8.2,3.4 c-2.8,0.1-5.9-0.3-8.5-2.6c-2.4-2.2-4.2-5.6-4.5-11.5L271.1,229.1z"/><path d="M297.5,216c-0.1-1.5,1.1-2.7,2.6-2.8l19.6-0.9c1.5-0.1,2.7,1.1,2.8,2.6l0.1,2.1c0.1,1.5-1.1,2.7-2.6,2.8 l-6.1,0.3l1.8,40.3c0.1,1.5-1.1,2.7-2.6,2.8l-2,0.1c-1.5,0.1-2.7-1.1-2.8-2.6l-1.8-40.3l-6.1,0.3c-1.5,0.1-2.7-1.1-2.8-2.6 L297.5,216z"/><path d="M343.1,214c-0.1-1.5,1.1-2.7,2.5-2.8l2.1-0.1c1.5-0.1,2.7,1.1,2.8,2.6l1.5,34.1c0.2,4,1.5,6.2,5.1,6.1 c3.8-0.2,4.8-2.9,4.6-6.5l-1.5-34.1c-0.1-1.5,1.1-2.7,2.5-2.8l2.1-0.1c1.5-0.1,2.7,1.1,2.8,2.6l1.5,34.1c0.4,8.4-3,13.9-11.7,14.2 c-9,0.4-12.5-5.2-12.9-13.2L343.1,214z"/><path d="M373.9,244.9c-0.1-1.5,1.1-2.7,2.6-2.8l2.1-0.1c1.4-0.1,2.7,1.1,2.8,2.6l0,1c0.2,3.6,0.9,5.3,2,6.1 c0.9,0.8,2.1,0.9,3.2,0.8c3.1-0.1,4.8-1.6,4.6-5.5c-0.2-3.5-3.7-6.1-7.5-8.8l0,0.1c-5.1-3.7-10.5-7.5-10.8-14.9 c-0.4-8.5,3.8-13.5,11.8-13.9c8.1-0.4,12.6,4.6,13,14.1l0,1c0.1,1.5-1.1,2.7-2.6,2.8l-2.1,0.1c-1.5,0.1-2.7-1.1-2.8-2.6l0-1 c-0.2-4.9-1.9-7.1-5.2-7c-3.1,0.1-4.8,1.9-4.6,5.8c0.2,3.8,4,6.6,7.8,9.3l-0.1,0c5.1,3.6,10.3,7.2,10.6,14.5 c0.4,8.4-3.9,13.1-11.8,13.4c-8.2,0.4-12.6-4.3-13-14.1L373.9,244.9z"/></g></svg>